<?xml version="1.0" encoding="UTF-8"?>
<svg width="21px" height="20px" viewBox="0 0 21 20" version="1.1" xmlns="http://www.w3.org/2000/svg" xmlns:xlink="http://www.w3.org/1999/xlink">
    <!-- Generator: Sketch 46.2 (44496) - http://www.bohemiancoding.com/sketch -->
    <title>Create profil@2x</title>
    <desc>Created with Sketch.</desc>
    <defs>
        <rect id="path-1" x="0" y="0" width="21" height="21"></rect>
        <path d="M16,16 L13,16 L13,18 L16,18 L16,21 L18,21 L18,18 L21,18 L21,16 L18,16 L18,13 L16,13 L16,16 Z" id="path-3"></path>
    </defs>
    <g id="Page-1" stroke="none" stroke-width="1" fill="none" fill-rule="evenodd">
        <g id="Homepage" transform="translate(-102.000000, -888.000000)">
            <g id="Créer-un-profil" transform="translate(102.000000, 831.000000)">
                <g id="En-détail" transform="translate(0.000000, 51.000000)">
                    <g id="Create-profil" transform="translate(0.000000, 5.000000)">
                        <g id="Icon">
                            <mask id="mask-2" fill="white">
                                <use xlink:href="#path-1"></use>
                            </mask>
                            <g id="Mask"></g>
                            <circle id="Oval" stroke="#F5A623" stroke-width="2" mask="url(#mask-2)" cx="9.5" cy="6.5" r="4.5"></circle>
                            <ellipse id="Oval" stroke="#F5A623" stroke-width="2" mask="url(#mask-2)" cx="9.5" cy="21" rx="8.5" ry="6"></ellipse>
                            <g id="Combined-Shape" mask="url(#mask-2)">
                                <use fill="#F5A623" fill-rule="evenodd" xlink:href="#path-3"></use>
                                <path stroke="#FFFFFF" stroke-width="1" d="M15.5,15.5 L15.5,12.5 L18.5,12.5 L18.5,15.5 L21.5,15.5 L21.5,18.5 L18.5,18.5 L18.5,21.5 L15.5,21.5 L15.5,18.5 L12.5,18.5 L12.5,15.5 L15.5,15.5 Z"></path>
                            </g>
                        </g>
                    </g>
                </g>
            </g>
        </g>
    </g>
</svg>