<?xml version="1.0" encoding="UTF-8"?>
<svg width="17px" height="21px" viewBox="0 0 17 21" version="1.1" xmlns="http://www.w3.org/2000/svg" xmlns:xlink="http://www.w3.org/1999/xlink">
    <!-- Generator: Sketch 46.2 (44496) - http://www.bohemiancoding.com/sketch -->
    <title>Icon Chrono@2x</title>
    <desc>Created with Sketch.</desc>
    <defs>
        <path d="M8.5,21 C3.80557963,21 0,17.1944204 0,12.5 C0,7.80557963 3.80557963,4 8.5,4 C13.1944204,4 17,7.80557963 17,12.5 C17,17.1944204 13.1944204,21 8.5,21 Z M8.5,19 C12.0898509,19 15,16.0898509 15,12.5 C15,8.91014913 12.0898509,6 8.5,6 C4.91014913,6 2,8.91014913 2,12.5 C2,16.0898509 4.91014913,19 8.5,19 Z" id="path-1"></path>
    </defs>
    <g id="Symbols" stroke="none" stroke-width="1" fill="none" fill-rule="evenodd">
        <g id="Icon-Chrono">
            <g>
                <path d="M13.7111242,2.53463205 L14.7111242,2.53463205 L14.7111242,2.53463205 C15.2634089,2.53463205 15.7111242,2.9823473 15.7111242,3.53463205 L15.7111242,6.03463205 L12.7111242,6.03463205 L12.7111242,3.53463205 L12.7111242,3.53463205 C12.7111242,2.9823473 13.1588394,2.53463205 13.7111242,2.53463205 Z" id="Rectangle-Copy" fill="#F63069" transform="translate(14.211124, 4.284632) rotate(33.000000) translate(-14.211124, -4.284632) "></path>
                <rect id="Rectangle-6-Copy" fill="#F63069" x="7" y="1" width="3" height="4"></rect>
                <rect id="Rectangle-4-Copy" fill="#F63069" x="6" y="0" width="5" height="2" rx="1"></rect>
                <g id="Combined-Shape-Copy">
                    <use fill="#F63069" fill-rule="evenodd" xlink:href="#path-1"></use>
                    <path stroke="#FFFFFF" stroke-width="1" d="M8.5,21.5 C3.52943725,21.5 -0.5,17.4705627 -0.5,12.5 C-0.5,7.52943725 3.52943725,3.5 8.5,3.5 C13.4705627,3.5 17.5,7.52943725 17.5,12.5 C17.5,17.4705627 13.4705627,21.5 8.5,21.5 Z M8.5,18.5 C11.8137085,18.5 14.5,15.8137085 14.5,12.5 C14.5,9.1862915 11.8137085,6.5 8.5,6.5 C5.1862915,6.5 2.5,9.1862915 2.5,12.5 C2.5,15.8137085 5.1862915,18.5 8.5,18.5 Z"></path>
                </g>
                <path d="M5.58577437,12.4519512 C5.47297466,12.6626108 5.40900974,12.9033404 5.40900974,13.1590097 C5.40900974,13.9874369 6.08058262,14.6590097 6.90900974,14.6590097 C7.73743687,14.6590097 8.40900974,13.9874369 8.40900974,13.1590097 C8.40900974,12.9033404 8.34504482,12.6626108 8.23224512,12.4519512 L6.90900974,7.15900974 L5.58577437,12.4519512 Z" id="Combined-Shape-Copy-2" fill="#F63069" transform="translate(6.909010, 10.909010) rotate(-45.000000) translate(-6.909010, -10.909010) "></path>
            </g>
        </g>
    </g>
</svg>