<?xml version="1.0" encoding="UTF-8"?>
<svg width="20px" height="20px" viewBox="0 0 20 20" version="1.1" xmlns="http://www.w3.org/2000/svg" xmlns:xlink="http://www.w3.org/1999/xlink">
    <!-- Generator: Sketch 46.2 (44496) - http://www.bohemiancoding.com/sketch -->
    <title>Icon Feedback@2x</title>
    <desc>Created with Sketch.</desc>
    <defs>
        <rect id="path-1" x="0" y="0" width="20" height="20"></rect>
    </defs>
    <g id="Page-1" stroke="none" stroke-width="1" fill="none" fill-rule="evenodd">
        <g id="Homepage" transform="translate(-102.000000, -1940.000000)">
            <g id="Créer-un-profil" transform="translate(102.000000, 1883.000000)">
                <g id="En-détail" transform="translate(0.000000, 51.000000)">
                    <g id="Icon-Feedback" transform="translate(0.000000, 6.000000)">
                        <g>
                            <mask id="mask-2" fill="white">
                                <use xlink:href="#path-1"></use>
                            </mask>
                            <g id="Rectangle-15"></g>
                            <path d="M2.19113571,18.6074774 L7.48654806,16.6882157 L7.77252729,16.7529905 C8.49412061,16.9164327 9.24048963,17 10,17 C14.992681,17 19,13.3934129 19,9 C19,4.60658712 14.992681,1 10,1 C5.00731903,1 1,4.60658712 1,9 C1,10.7030568 1.60005382,12.3263452 2.70286155,13.6814073 L2.99094184,14.0353826 L2.19113571,18.6074774 Z" id="Combined-Shape" stroke="#4935A9" stroke-width="2" mask="url(#mask-2)"></path>
                            <circle id="Oval-9" stroke="#4935A9" mask="url(#mask-2)" cx="15" cy="9" r="1"></circle>
                            <circle id="Oval-9" stroke="#4935A9" mask="url(#mask-2)" cx="10" cy="9" r="1"></circle>
                            <circle id="Oval-9" stroke="#4935A9" mask="url(#mask-2)" cx="5" cy="9" r="1"></circle>
                        </g>
                    </g>
                </g>
            </g>
        </g>
    </g>
</svg>