<?xml version="1.0" encoding="UTF-8"?>
<svg width="22px" height="22px" viewBox="0 0 22 22" version="1.1" xmlns="http://www.w3.org/2000/svg" xmlns:xlink="http://www.w3.org/1999/xlink">
    <!-- Generator: Sketch 46.2 (44496) - http://www.bohemiancoding.com/sketch -->
    <title>Cup@2x</title>
    <desc>Created with Sketch.</desc>
    <defs></defs>
    <g id="Page-1" stroke="none" stroke-width="1" fill="none" fill-rule="evenodd">
        <g id="Article---Consult" transform="translate(-327.000000, -2090.000000)" fill="#FFCC00">
            <g id="Leaderboard" transform="translate(327.000000, 2074.000000)">
                <g id="Cup" transform="translate(0.000000, 16.000000)">
                    <path d="M20.848,4.615 L20.269,5.58 C19.493,6.873 18.432,8.01 17.175,8.932 C17.731,6.752 17.952,4.529 17.992,3 L19.933,3 C20.521,3 21,3.479 21,4.067 C21,4.26 20.947,4.449 20.848,4.615 M1.731,5.58 L1.152,4.615 C1.053,4.449 1,4.26 1,4.067 C1,3.479 1.478,3 2.066,3 L4.008,3 C4.047,4.529 4.269,6.752 4.825,8.932 C3.567,8.01 2.507,6.873 1.731,5.58 M19.933,2 L18,2 C18,0.897 17.103,0 16,0 L6,0 C4.897,0 4,0.897 4,2 L2.066,2 C0.927,2 0,2.927 0,4.067 C0,4.441 0.101,4.808 0.294,5.13 L0.873,6.094 C1.923,7.844 3.444,9.332 5.267,10.423 C6.032,12.676 7.214,14.683 9,15.547 L9,18 C9,18.552 8.551,19 8,19 C6.897,19 6,19.898 6,21 L6,21.5 C6,21.777 6.223,22 6.5,22 L15.5,22 C15.776,22 16,21.777 16,21.5 L16,21 C16,19.898 15.103,19 14,19 C13.449,19 13,18.552 13,18 L13,15.547 C14.786,14.683 15.968,12.676 16.733,10.423 C18.556,9.332 20.077,7.844 21.126,6.094 L21.705,5.129 C21.898,4.808 22,4.441 22,4.067 C22,2.927 21.073,2 19.933,2"></path>
                </g>
            </g>
        </g>
    </g>
</svg>