<?xml version="1.0" encoding="UTF-8"?>
<svg width="16px" height="16px" viewBox="0 0 16 16" version="1.1" xmlns="http://www.w3.org/2000/svg" xmlns:xlink="http://www.w3.org/1999/xlink">
    <!-- Generator: Sketch 46.2 (44496) - http://www.bohemiancoding.com/sketch -->
    <title>Icon - Course - Couleur Copy 3@2x</title>
    <desc>Created with Sketch.</desc>
    <defs>
        <rect id="path-1" x="0" y="0" width="16" height="16"></rect>
        <path d="M11,5.00410385 L11,11 L10,11 L10,4.82010269 L7.84733925,6.97276344 L7.14023247,6.26565666 L9.96865959,3.43722954 L10,3.46856995 L10,3 L11,3 L11,3.58989029 L13.6757664,6.26565666 L12.9686596,6.97276344 L11,5.00410385 Z" id="path-3"></path>
    </defs>
    <g id="Symbols" stroke="none" stroke-width="1" fill="none" fill-rule="evenodd">
        <g id="Icon---Course---Couleur-Copy-3">
            <g id="Course-icon">
                <mask id="mask-2" fill="white">
                    <use xlink:href="#path-1"></use>
                </mask>
                <g id="Mask"></g>
                <g mask="url(#mask-2)" fill="#A7AFB7">
                    <g transform="translate(2.000000, 1.000000)">
                        <rect id="Rectangle-5" x="0" y="0" width="12" height="1"></rect>
                        <rect id="Rectangle-5-Copy-5" x="11" y="0" width="1" height="13"></rect>
                        <rect id="Rectangle-5-Copy-2" x="3" y="3" width="6" height="1"></rect>
                        <rect id="Rectangle-5-Copy-3" x="3" y="6" width="6" height="1"></rect>
                        <rect id="Rectangle-5-Copy-6" x="3" y="9" width="6" height="1"></rect>
                    </g>
                </g>
            </g>
            <rect id="Rectangle-5-Copy-4" fill="#A7AFB7" x="2" y="1" width="1" height="13"></rect>
            <rect id="Rectangle-5-Copy" fill="#A7AFB7" x="2" y="13" width="12" height="1"></rect>
            <g id="Combined-Shape">
                <use fill="#FF9500" fill-rule="evenodd" xlink:href="#path-3"></use>
                <path stroke="#F6F9FA" stroke-width="1" d="M9.96865959,4.14433632 L9.6151062,3.79078293 L9.96865959,3.43722954 L10,3.46856995 L10,3 L10.5,3 L10.5,3.23428497 L10.5,3 L11,3.5 L10.5,3.5 L10.5,3.54494514 L10.5,3.5 Z M9.96865959,4.14433632 L9.6151062,3.79078293 L9.96865959,3.43722954 L10,3.46856995 L10,3 L10.5,3 L10.5,3.23428497 L10.5,3 L11,3.5 L10.5,3.5 L10.5,3.54494514 L10.5,3.5 Z M11.5,6.21121063 L11.5,11.5 L9.5,11.5 L9.5,6.02720948 L7.84733925,7.67987023 L6.43312569,6.26565666 L9.5,3.19878235 L9.5,2.5 L11.5,2.5 L11.5,3.38278351 L14.3828732,6.26565666 L12.9686596,7.67987023 L11.5,6.21121063 Z"></path>
            </g>
        </g>
    </g>
</svg>