<?xml version="1.0" encoding="UTF-8"?>
<svg width="16px" height="16px" viewBox="0 0 16 16" version="1.1" xmlns="http://www.w3.org/2000/svg" xmlns:xlink="http://www.w3.org/1999/xlink">
    <!-- Generator: Sketch 46.2 (44496) - http://www.bohemiancoding.com/sketch -->
    <title>Icon - Course - Couleur Copy 2@2x</title>
    <desc>Created with Sketch.</desc>
    <defs>
        <rect id="path-1" x="0" y="0" width="16" height="16"></rect>
        <path d="M4.62732773,8.21311417 L10.9763615,1.86408043 L9.56214791,0.449866867 L3.21311417,6.79890061 L1.41421356,5 L-3.688716e-14,6.41421356 L1.79890061,8.21311417 L1.78397331,8.22804146 L3.19818687,9.64225502 L3.21311417,9.62732773 L3.53553391,9.94974747 L4.94974747,8.53553391 L4.62732773,8.21311417 Z" id="path-3"></path>
    </defs>
    <g id="Symbols" stroke="none" stroke-width="1" fill="none" fill-rule="evenodd">
        <g id="Icon---Course---Couleur-Copy-2">
            <g id="Course-icon">
                <mask id="mask-2" fill="white">
                    <use xlink:href="#path-1"></use>
                </mask>
                <g id="Mask"></g>
                <g mask="url(#mask-2)" fill="#A7AFB7">
                    <g transform="translate(2.000000, 1.000000)">
                        <rect id="Rectangle-5" x="0" y="0" width="12" height="1"></rect>
                        <rect id="Rectangle-5-Copy-5" x="11" y="0" width="1" height="13"></rect>
                        <rect id="Rectangle-5-Copy-2" x="3" y="3" width="6" height="1"></rect>
                        <rect id="Rectangle-5-Copy-3" x="3" y="6" width="6" height="1"></rect>
                        <rect id="Rectangle-5-Copy-6" x="3" y="9" width="6" height="1"></rect>
                    </g>
                </g>
            </g>
            <g id="Validation-icon" transform="translate(3.000000, 3.000000)">
                <g id="Combined-Shape">
                    <use fill="#3BC169" fill-rule="evenodd" xlink:href="#path-3"></use>
                    <path stroke="#F6F9FA" stroke-width="1" d="M5.33443451,8.21311417 L5.65685425,8.53553391 L3.53553391,10.6568542 L3.21311417,10.3344345 L3.19818687,10.3493618 L1.07686653,8.22804146 L1.09179382,8.21311417 L-0.707106781,6.41421356 L1.41421356,4.29289322 L3.21311417,6.09179382 L9.56214791,-0.257239914 L11.6834682,1.86408043 L5.33443451,8.21311417 Z"></path>
                </g>
            </g>
            <rect id="Rectangle-5-Copy-4" fill="#A7AFB7" x="2" y="1" width="1" height="13"></rect>
            <rect id="Rectangle-5-Copy" fill="#A7AFB7" x="2" y="13" width="12" height="1"></rect>
        </g>
    </g>
</svg>