<?xml version="1.0" encoding="UTF-8"?>
<svg width="147px" height="138px" viewBox="0 0 147 138" version="1.1" xmlns="http://www.w3.org/2000/svg" xmlns:xlink="http://www.w3.org/1999/xlink">
    <!-- Generator: Sketch 46.2 (44496) - http://www.bohemiancoding.com/sketch -->
    <title>Illustration Soutenir@2x</title>
    <desc>Created with Sketch.</desc>
    <defs></defs>
    <g id="Page-1" stroke="none" stroke-width="1" fill="none" fill-rule="evenodd">
        <g id="Homepage" transform="translate(-516.000000, -1264.000000)">
            <g id="Soutenir-le-projet" transform="translate(102.000000, 1143.000000)">
                <g id="Illustration-Soutenir" transform="translate(414.000000, 121.000000)">
                    <g id="Group-2" transform="translate(0.000000, 28.000000)" fill="#A7AFB7">
                        <path d="M54,88 L54,88 L54,88 C55.6568542,88 57,86.6568542 57,85 L57,69.3847763 L57,69.3847763 C57,65.9369619 55.6303611,62.6303611 53.1923882,60.1923882 L32,39 L32,39 C28.1340068,35.1340068 21.8659932,35.1340068 18,39 L18,39 L18,39 C14.1340068,42.8659932 14.1340068,49.1340068 18,53 L31.9803918,66.9803918 L31.9803918,66.9803918 C33.1015688,68.1015688 34.9143079,68.1177311 36.0552979,67.0167236 L36.0552979,67.0167236 L36.0552979,67.0167236 C37.1759877,65.9353049 37.2078232,64.1501431 36.1264044,63.0294533 C36.11806,63.0208059 36.1096604,63.0122119 36.1012062,63.0036719 L22.5185257,49.2831909 L22.5185257,49.2831909 C20.8944173,47.6426054 20.8258472,45.0219799 22.3619385,43.2987061 L22.3619385,43.2987061 L22.3619385,43.2987061 C23.7908481,41.6956746 26.2487219,41.554521 27.8517533,42.9834306 C27.9046719,43.0306011 27.9562906,43.07921 28.0065514,43.1292028 L48.052133,63.0678574 L48.052133,63.0678574 C49.9390761,64.9447353 51,67.4963766 51,70.1578095 L51,85 L51,85 C51,86.6568542 52.3431458,88 54,88 Z" id="Path-3"></path>
                        <path d="M10,2.13163911e-14 L10,2.13163911e-14 L10,2.13162821e-14 C15.5228475,1.04912035e-14 20,4.4771525 20,10 L20,31 L20,31 C20,32.6568542 18.6568542,34 17,34 L17,34 L17,34 C15.3431458,34 14,32.6568542 14,31 L14,10 L14,10 C14,7.790861 12.209139,6 10,6 L10,6 L10,6 C7.790861,6 6,7.790861 6,10 L6,51.8578644 L6,51.8578644 C6,54.5100293 7.0535684,57.0535684 8.92893219,58.9289322 L31,81 L31,81 C32.1045695,82.1045695 32.1045695,83.8954305 31,85 L31,85 L31,85 C29.8954305,86.1045695 28.1045695,86.1045695 27,85 L3.80761184,61.8076118 L3.80761184,61.8076118 C1.36963892,59.3696389 -3.2728272e-13,56.0630381 -3.10862447e-13,52.6152237 L-5.86196827e-14,10 L-5.68434189e-14,10 C-2.56354919e-14,4.4771525 4.4771525,3.21413606e-14 10,2.13162821e-14 Z" id="Path-4"></path>
                        <path d="M17,98 L17,107.5 L17,107.5 C17,108.880712 18.1192881,110 19.5,110 L19.5,110 L19.5,110 C20.8807119,110 22,108.880712 22,107.5 L22,101 L22,101 C22,100.447715 22.4477153,100 23,100 L56,100 L56,100 C56.5522847,100 57,100.447715 57,101 L57,107.5 L57,107.5 C57,108.880712 58.1192881,110 59.5,110 L59.5,110 L59.5,110 C60.8807119,110 62,108.880712 62,107.5 L62,98 L62,98 C62,96.3431458 60.6568542,95 59,95 L20,95 L20,95 C18.3431458,95 17,96.3431458 17,98 Z" id="Path-5"></path>
                    </g>
                    <g id="Group-2" transform="translate(116.000000, 83.000000) scale(-1, 1) translate(-116.000000, -83.000000) translate(85.000000, 28.000000)" fill="#A7AFB7">
                        <path d="M54,88 L54,88 L54,88 C55.6568542,88 57,86.6568542 57,85 L57,69.3847763 L57,69.3847763 C57,65.9369619 55.6303611,62.6303611 53.1923882,60.1923882 L32,39 L32,39 C28.1340068,35.1340068 21.8659932,35.1340068 18,39 L18,39 L18,39 C14.1340068,42.8659932 14.1340068,49.1340068 18,53 L31.9803918,66.9803918 L31.9803918,66.9803918 C33.1015688,68.1015688 34.9143079,68.1177311 36.0552979,67.0167236 L36.0552979,67.0167236 L36.0552979,67.0167236 C37.1759877,65.9353049 37.2078232,64.1501431 36.1264044,63.0294533 C36.11806,63.0208059 36.1096604,63.0122119 36.1012062,63.0036719 L22.5185257,49.2831909 L22.5185257,49.2831909 C20.8944173,47.6426054 20.8258472,45.0219799 22.3619385,43.2987061 L22.3619385,43.2987061 L22.3619385,43.2987061 C23.7908481,41.6956746 26.2487219,41.554521 27.8517533,42.9834306 C27.9046719,43.0306011 27.9562906,43.07921 28.0065514,43.1292028 L48.052133,63.0678574 L48.052133,63.0678574 C49.9390761,64.9447353 51,67.4963766 51,70.1578095 L51,85 L51,85 C51,86.6568542 52.3431458,88 54,88 Z" id="Path-3"></path>
                        <path d="M10,2.13163911e-14 L10,2.13163911e-14 L10,2.13162821e-14 C15.5228475,1.04912035e-14 20,4.4771525 20,10 L20,31 L20,31 C20,32.6568542 18.6568542,34 17,34 L17,34 L17,34 C15.3431458,34 14,32.6568542 14,31 L14,10 L14,10 C14,7.790861 12.209139,6 10,6 L10,6 L10,6 C7.790861,6 6,7.790861 6,10 L6,51.8578644 L6,51.8578644 C6,54.5100293 7.0535684,57.0535684 8.92893219,58.9289322 L31,81 L31,81 C32.1045695,82.1045695 32.1045695,83.8954305 31,85 L31,85 L31,85 C29.8954305,86.1045695 28.1045695,86.1045695 27,85 L3.80761184,61.8076118 L3.80761184,61.8076118 C1.36963892,59.3696389 -3.2728272e-13,56.0630381 -3.10862447e-13,52.6152237 L-5.86196827e-14,10 L-5.68434189e-14,10 C-2.56354919e-14,4.4771525 4.4771525,3.21413606e-14 10,2.13162821e-14 Z" id="Path-4"></path>
                        <path d="M17,98 L17,107.5 L17,107.5 C17,108.880712 18.1192881,110 19.5,110 L19.5,110 L19.5,110 C20.8807119,110 22,108.880712 22,107.5 L22,101 L22,101 C22,100.447715 22.4477153,100 23,100 L56,100 L56,100 C56.5522847,100 57,100.447715 57,101 L57,107.5 L57,107.5 C57,108.880712 58.1192881,110 59.5,110 L59.5,110 L59.5,110 C60.8807119,110 62,108.880712 62,107.5 L62,98 L62,98 C62,96.3431458 60.6568542,95 59,95 L20,95 L20,95 C18.3431458,95 17,96.3431458 17,98 Z" id="Path-5"></path>
                    </g>
                    <path d="M73.8312236,70 C71.7307753,70.0000011 59.5232875,62.6941693 48.587524,50.4087518 C41.8219565,42.8082014 34,33.3017364 34,22.4401914 C34,12.7594289 40.9047173,0 55.2658228,0 C67.2769362,0 72.9800145,11.5223415 74.1687764,12.7033493 C75.0199855,11.5223415 80.7230638,0 92.7341772,0 C107.095283,0 114,12.7594289 114,22.4401914 C114,33.0814993 106.344349,42.4221228 99.7156689,49.9440605 C88.6422264,62.5097216 75.9580211,69.9999989 73.8312236,70 Z" id="HeatShape" fill="#F63069"></path>
                </g>
            </g>
        </g>
    </g>
</svg>