<?xml version="1.0" encoding="UTF-8"?>
<svg width="22px" height="22px" viewBox="0 0 22 22" version="1.1" xmlns="http://www.w3.org/2000/svg" xmlns:xlink="http://www.w3.org/1999/xlink">
    <!-- Generator: Sketch 46.2 (44496) - http://www.bohemiancoding.com/sketch -->
    <title>Group Copy@2x</title>
    <desc>Created with Sketch.</desc>
    <defs></defs>
    <g id="Page-1" stroke="none" stroke-width="1" fill="none" fill-rule="evenodd">
        <g id="Profil" transform="translate(-327.000000, -648.000000)" stroke="#3BC069" stroke-width="2">
            <g id="Group-Copy" transform="translate(337.960155, 658.960155) rotate(-45.000000) translate(-337.960155, -658.960155) translate(326.460155, 654.960155)">
                <path d="M7.00048828,8 L4,8 L4,8 C1.790861,8 2.705415e-16,6.209139 0,4 L0,4 L0,4 C-1.25159629e-15,1.790861 1.790861,-1.78018407e-14 4,-1.82076576e-14 L10,-6.71855692e-15 L10,0 C12.209139,3.51839868e-15 14,1.790861 14,4 L14,5" id="Path-6"></path>
                <path d="M16.0004883,8 L13,8 L13,8 C10.790861,8 9,6.209139 9,4 L9,4 L9,4 C9,1.790861 10.790861,-1.78018407e-14 13,-1.82076576e-14 L19,-6.71855692e-15 L19,-8.8817842e-16 C21.209139,2.63022026e-15 23,1.790861 23,4 L23,5" id="Path-6" transform="translate(16.000000, 4.000000) scale(-1, -1) translate(-16.000000, -4.000000) "></path>
            </g>
        </g>
    </g>
</svg>