<?xml version="1.0" encoding="UTF-8"?>
<svg width="20px" height="18px" viewBox="0 0 20 18" version="1.1" xmlns="http://www.w3.org/2000/svg" xmlns:xlink="http://www.w3.org/1999/xlink">
    <!-- Generator: Sketch 46.2 (44496) - http://www.bohemiancoding.com/sketch -->
    <title>Livre icon@2x</title>
    <desc>Created with Sketch.</desc>
    <defs></defs>
    <g id="Page-1" stroke="none" stroke-width="1" fill="none" fill-rule="evenodd">
        <g id="Homepage" transform="translate(-102.000000, -404.000000)" stroke="#F63069">
            <g id="Les-formations" transform="translate(102.000000, 345.000000)">
                <g id="Livre-icon" transform="translate(0.000000, 59.000000)">
                    <g>
                        <path d="M1.00000002,0.999999936 L1.00000002,0.999950435 L1.00000002,14.9781966 L1.00002069,14.9781966 C3.42013776,15.0553969 5.31997785,15.2643811 6.71421534,15.6129405 C7.80968903,15.8868089 8.90507106,16.3614456 9.99997732,17.0329301 L10,17.0329365 L10,3.47389013 C8.55503264,2.48124292 7.29328785,1.85563836 6.22914409,1.58960242 C5.15803676,1.32182559 3.40648775,1.12209083 0.999997516,0.999999873 Z" id="Rectangle-6" stroke-width="2"></path>
                        <path d="M9.99995657,0.999999936 L9.99995657,0.999950435 L9.99995657,14.9781966 L9.99997723,14.9781966 C12.4200943,15.0553969 14.3199344,15.2643811 15.7141719,15.6129405 C16.8096456,15.8868089 17.9050276,16.3614456 18.9999339,17.0329301 L18.9999566,17.0329365 L18.9999566,3.47389013 C17.5549892,2.48124292 16.2932444,1.85563836 15.2291006,1.58960242 C14.1579933,1.32182559 12.4064443,1.12209083 9.99995406,0.999999873 Z" id="Rectangle-6-Copy" stroke-width="2" transform="translate(14.499978, 9.016468) scale(-1, 1) translate(-14.499978, -9.016468) "></path>
                    </g>
                </g>
            </g>
        </g>
    </g>
</svg>