<?xml version="1.0" encoding="UTF-8"?>
<svg width="17px" height="17px" viewBox="0 0 17 17" version="1.1" xmlns="http://www.w3.org/2000/svg" xmlns:xlink="http://www.w3.org/1999/xlink">
    <!-- Generator: Sketch 46.2 (44496) - http://www.bohemiancoding.com/sketch -->
    <title>Recherche icon@2x</title>
    <desc>Created with Sketch.</desc>
    <defs></defs>
    <g id="Symbols" stroke="none" stroke-width="1" fill="none" fill-rule="evenodd">
        <g id="Recherche-icon" fill="#3E4246">
            <path d="M12.8338389,10.8700004 L16.3998565,14.436018 C16.7903808,14.8265423 16.7903808,15.4597073 16.3998565,15.8502316 C16.0093322,16.2407558 15.3761672,16.2407558 14.9856429,15.8502316 L11.4986549,12.3632436 C10.2820761,13.3847749 8.71288483,14 7,14 C3.13400675,14 0,10.8659932 0,7 C0,3.13400675 3.13400675,0 7,0 C10.8659932,0 14,3.13400675 14,7 C14,8.4308668 13.5706849,9.76146169 12.8338389,10.8700004 Z M7.00315068,12 C9.76457443,12 12.0031507,9.76142375 12.0031507,7 C12.0031507,4.23857625 9.76457443,2 7.00315068,2 C4.24172693,2 2.00315068,4.23857625 2.00315068,7 C2.00315068,9.76142375 4.24172693,12 7.00315068,12 Z" id="Combined-Shape"></path>
        </g>
    </g>
</svg>