<?xml version="1.0" encoding="UTF-8"?>
<svg width="20px" height="16px" viewBox="0 0 20 16" version="1.1" xmlns="http://www.w3.org/2000/svg" xmlns:xlink="http://www.w3.org/1999/xlink">
    <!-- Generator: Sketch 46.2 (44496) - http://www.bohemiancoding.com/sketch -->
    <title>Icone titre@2x</title>
    <desc>Created with Sketch.</desc>
    <defs></defs>
    <g id="Symbols" stroke="none" stroke-width="1" fill="none" fill-rule="evenodd">
        <g id="Icone-titre" fill="#3BAEF8">
            <g>
                <rect id="Rectangle-8" x="3" y="7" width="11" height="2"></rect>
                <rect id="Rectangle-10" x="19" y="8" width="1" height="8"></rect>
                <rect id="Rectangle-10-Copy" transform="translate(18.060660, 10.060660) rotate(45.000000) translate(-18.060660, -10.060660) " x="17.5606602" y="9.06066017" width="1" height="2"></rect>
                <path d="M0,0 L6,0 C5.2227105,0.292263455 4.71172418,0.560736762 4.46704102,0.805419922 C4.22235786,1.05010308 4.06667752,1.44829644 4,2 L4,14 C4.07682292,14.5813802 4.26928711,15.026123 4.57739258,15.3342285 C4.88549805,15.642334 5.35970052,15.8642578 6,16 L0,16 C0.682834201,15.8155382 1.14352756,15.604031 1.38208008,15.3654785 C1.6206326,15.126926 1.8266059,14.6717665 2,14 L2,2 C1.91333008,1.33650716 1.76196289,0.896728516 1.54589844,0.680664062 C1.32983398,0.464599609 0.814534505,0.237711589 0,0 Z" id="Rectangle-3"></path>
                <path d="M11,0 L17,0 C16.2227105,0.292263455 15.7117242,0.560736762 15.467041,0.805419922 C15.2223579,1.05010308 15.0666775,1.44829644 15,2 L15,14 C15.0768229,14.5813802 15.2692871,15.026123 15.5773926,15.3342285 C15.885498,15.642334 16.3597005,15.8642578 17,16 L11,16 C11.6828342,15.8155382 12.1435276,15.604031 12.3820801,15.3654785 C12.6206326,15.126926 12.8266059,14.6717665 13,14 L13,2 C12.9133301,1.33650716 12.7619629,0.896728516 12.5458984,0.680664062 C12.329834,0.464599609 11.8145345,0.237711589 11,0 Z" id="Rectangle-3-Copy-5"></path>
            </g>
        </g>
    </g>
</svg>