<?xml version="1.0" encoding="UTF-8"?>
<svg width="181px" height="130px" viewBox="0 0 181 130" version="1.1" xmlns="http://www.w3.org/2000/svg" xmlns:xlink="http://www.w3.org/1999/xlink">
    <!-- Generator: Sketch 46.2 (44496) - http://www.bohemiancoding.com/sketch -->
    <title>Group@2x</title>
    <desc>Created with Sketch.</desc>
    <defs>
        <circle id="path-1" cx="73.5" cy="12.5" r="12.5"></circle>
        <circle id="path-2" cx="168.5" cy="12.5" r="12.5"></circle>
        <circle id="path-3" cx="123.5" cy="117.5" r="12.5"></circle>
    </defs>
    <g id="Page-1" stroke="none" stroke-width="1" fill="none" fill-rule="evenodd">
        <g id="Homepage" transform="translate(-186.000000, -107.000000)">
            <g id="Group" transform="translate(186.000000, 107.000000)">
                <path d="M73.5,12.5 L123.5,117.5" id="Line" stroke="#3BAEF8" stroke-width="10" fill="#FF2D55" stroke-linecap="square"></path>
                <path d="M168.5,12.5 L123.5,117.5" id="Line-Copy" stroke="#3BAEF8" stroke-width="10" fill="#FF2D55" stroke-linecap="square"></path>
                <g id="Oval-3">
                    <use fill="#FFFFFF" fill-rule="evenodd" xlink:href="#path-1"></use>
                    <circle stroke="#3BAEF8" stroke-width="5" cx="73.5" cy="12.5" r="10"></circle>
                </g>
                <g id="Oval-3-Copy">
                    <use fill="#FFFFFF" fill-rule="evenodd" xlink:href="#path-2"></use>
                    <circle stroke="#3BAEF8" stroke-width="5" cx="168.5" cy="12.5" r="10"></circle>
                </g>
                <g id="Oval-3-Copy-2">
                    <use fill="#FFFFFF" fill-rule="evenodd" xlink:href="#path-3"></use>
                    <circle stroke="#3BAEF8" stroke-width="5" cx="123.5" cy="117.5" r="10"></circle>
                </g>
                <path d="M48.1679688,7.93457031 C41.3319971,7.93457031 37.9140625,10.5549868 37.9140625,15.7958984 C37.9140625,16.7643278 38.0992006,17.7897081 38.4694824,18.8720703 C38.8397642,19.9544325 39.1673163,21.093744 39.4521484,22.2900391 L72.1791992,101.074219 C72.4640314,101.643883 72.919756,101.928711 73.5463867,101.928711 C74.1730175,101.928711 74.6857076,101.6154 75.0844727,100.98877 L93.96875,56.5551758 L109.535784,22.3889448 C110.214478,19.7387695 110.978045,17.4910142 110.763184,16.3085938 C109.804932,11.0351562 105.841447,7.93457031 97.4880371,7.93457031 C95.1363253,7.93457031 95.8342896,7.93457031 95.173584,7.93457031 C94.5128784,7.93457031 94.190918,7.93457031 94.190918,7.25097656 L94.190918,5.20019531 C94.190918,4.74446387 94.4187803,4.51660156 94.8745117,4.51660156 L138.145996,4.51660156 C138.601728,4.51660156 138.82959,4.74446387 138.82959,5.20019531 L138.82959,7.25097656 C138.82959,7.70670801 138.601728,7.93457031 138.145996,7.93457031 L134.984375,7.93457031 C129.515598,7.93457031 125.357111,10.6119524 122.508789,15.9667969 C121.54036,17.7897227 120.543462,19.9259318 119.518066,22.3754883 L108.409668,48.4375 L99.4375,69.543457 L76.1098633,124.316406 C75.4832325,125.683601 74.8281284,126.523843 74.1445313,126.837158 C73.4609341,127.150474 72.4640365,127.307129 71.1538086,127.307129 L67.1376953,127.307129 C65.770501,127.307129 64.8875345,126.652025 64.4887695,125.341797 L19.2006836,16.3085938 C18.2892207,14.086903 15.4694247,12.135832 10.7412109,10.4553223 C6.01299719,8.77481256 3.09351141,7.93457031 1.98266602,7.93457031 C0.871820618,7.93457031 0.31640625,7.70670801 0.31640625,7.25097656 L0.31640625,5.20019531 C0.31640625,4.74446387 0.544268555,4.51660156 1,4.51660156 L49.7060547,4.51660156 C50.1617861,4.51660156 50.3896484,4.74446387 50.3896484,5.20019531 L50.3896484,7.25097656 C50.3896484,7.70670801 50.1617861,7.93457031 49.7060547,7.93457031 L48.1679688,7.93457031 Z" id="Path" fill="#3E4246"></path>
            </g>
        </g>
    </g>
</svg>