<?xml version="1.0" encoding="UTF-8"?>
<svg width="403px" height="130px" viewBox="0 0 403 130" version="1.1" xmlns="http://www.w3.org/2000/svg" xmlns:xlink="http://www.w3.org/1999/xlink">
    <!-- Generator: Sketch 46.2 (44496) - http://www.bohemiancoding.com/sketch -->
    <title>Group 3@2x</title>
    <desc>Created with Sketch.</desc>
    <defs>
        <circle id="path-1" cx="73.5" cy="12.5" r="12.5"></circle>
        <circle id="path-2" cx="168.5" cy="12.5" r="12.5"></circle>
        <circle id="path-3" cx="123.5" cy="117.5" r="12.5"></circle>
    </defs>
    <g id="Page-1" stroke="none" stroke-width="1" fill="none" fill-rule="evenodd">
        <g id="Homepage-Copy" transform="translate(-186.000000, -107.000000)">
            <g id="Group-3" transform="translate(186.000000, 107.000000)">
                <g id="Group">
                    <path d="M73.5,12.5 L123.5,117.5" id="Line" stroke="#3BAEF8" stroke-width="10" fill="#FF2D55" stroke-linecap="square"></path>
                    <path d="M168.5,12.5 L123.5,117.5" id="Line-Copy" stroke="#3BAEF8" stroke-width="10" fill="#FF2D55" stroke-linecap="square"></path>
                    <g id="Oval-3">
                        <use fill="#FFFFFF" fill-rule="evenodd" xlink:href="#path-1"></use>
                        <circle stroke="#3BAEF8" stroke-width="5" cx="73.5" cy="12.5" r="10"></circle>
                    </g>
                    <g id="Oval-3-Copy">
                        <use fill="#FFFFFF" fill-rule="evenodd" xlink:href="#path-2"></use>
                        <circle stroke="#3BAEF8" stroke-width="5" cx="168.5" cy="12.5" r="10"></circle>
                    </g>
                    <g id="Oval-3-Copy-2">
                        <use fill="#FFFFFF" fill-rule="evenodd" xlink:href="#path-3"></use>
                        <circle stroke="#3BAEF8" stroke-width="5" cx="123.5" cy="117.5" r="10"></circle>
                    </g>
                    <path d="M48.1679688,7.93457031 C41.3319971,7.93457031 37.9140625,10.5549868 37.9140625,15.7958984 C37.9140625,16.7643278 38.0992006,17.7897081 38.4694824,18.8720703 C38.8397642,19.9544325 39.1673163,21.093744 39.4521484,22.2900391 L72.1791992,101.074219 C72.4640314,101.643883 72.919756,101.928711 73.5463867,101.928711 C74.1730175,101.928711 74.6857076,101.6154 75.0844727,100.98877 L93.96875,56.5551758 L109.535784,22.3889448 C110.214478,19.7387695 110.978045,17.4910142 110.763184,16.3085938 C109.804932,11.0351562 105.841447,7.93457031 97.4880371,7.93457031 C95.1363253,7.93457031 95.8342896,7.93457031 95.173584,7.93457031 C94.5128784,7.93457031 94.190918,7.93457031 94.190918,7.25097656 L94.190918,5.20019531 C94.190918,4.74446387 94.4187803,4.51660156 94.8745117,4.51660156 L138.145996,4.51660156 C138.601728,4.51660156 138.82959,4.74446387 138.82959,5.20019531 L138.82959,7.25097656 C138.82959,7.70670801 138.601728,7.93457031 138.145996,7.93457031 L134.984375,7.93457031 C129.515598,7.93457031 125.357111,10.6119524 122.508789,15.9667969 C121.54036,17.7897227 120.543462,19.9259318 119.518066,22.3754883 L108.409668,48.4375 L99.4375,69.543457 L76.1098633,124.316406 C75.4832325,125.683601 74.8281284,126.523843 74.1445313,126.837158 C73.4609341,127.150474 72.4640365,127.307129 71.1538086,127.307129 L67.1376953,127.307129 C65.770501,127.307129 64.8875345,126.652025 64.4887695,125.341797 L19.2006836,16.3085938 C18.2892207,14.086903 15.4694247,12.135832 10.7412109,10.4553223 C6.01299719,8.77481256 3.09351141,7.93457031 1.98266602,7.93457031 C0.871820618,7.93457031 0.31640625,7.70670801 0.31640625,7.25097656 L0.31640625,5.20019531 C0.31640625,4.74446387 0.544268555,4.51660156 1,4.51660156 L49.7060547,4.51660156 C50.1617861,4.51660156 50.3896484,4.74446387 50.3896484,5.20019531 L50.3896484,7.25097656 C50.3896484,7.70670801 50.1617861,7.93457031 49.7060547,7.93457031 L48.1679688,7.93457031 Z" id="Path" fill="#3E4246"></path>
                </g>
                <path d="M181.578125,47.1796875 C181.578125,49.0651136 181.054693,50.5065054 180.007812,51.5039062 C178.960932,52.5013071 177.453135,53 175.484375,53 L172.289062,53 L172.289062,41.578125 L175.820312,41.578125 C177.63803,41.578125 179.052078,42.0677034 180.0625,43.046875 C181.072922,44.0260466 181.578125,45.403637 181.578125,47.1796875 Z M179.609375,47.2421875 C179.609375,44.5077988 178.330742,43.140625 175.773438,43.140625 L174.15625,43.140625 L174.15625,51.4296875 L175.484375,51.4296875 C178.234389,51.4296875 179.609375,50.0338681 179.609375,47.2421875 Z M187.609375,53.15625 C186.265618,53.15625 185.214848,52.7643268 184.457031,51.9804688 C183.699215,51.1966107 183.320312,50.1171944 183.320312,48.7421875 C183.320312,47.3307221 183.671871,46.2213582 184.375,45.4140625 C185.078129,44.6067668 186.044265,44.203125 187.273438,44.203125 C188.414068,44.203125 189.315101,44.5494757 189.976562,45.2421875 C190.638024,45.9348993 190.96875,46.8880148 190.96875,48.1015625 L190.96875,49.09375 L185.210938,49.09375 C185.236979,49.9322959 185.46354,50.5768207 185.890625,51.0273438 C186.31771,51.4778668 186.919267,51.703125 187.695312,51.703125 C188.205732,51.703125 188.680987,51.6549484 189.121094,51.5585938 C189.5612,51.4622391 190.033852,51.3020845 190.539062,51.078125 L190.539062,52.5703125 C190.091144,52.7838552 189.638023,52.9348954 189.179688,53.0234375 C188.721352,53.1119796 188.19792,53.15625 187.609375,53.15625 Z M187.273438,45.59375 C186.690101,45.59375 186.222658,45.778644 185.871094,46.1484375 C185.519529,46.518231 185.309896,47.0572881 185.242188,47.765625 L189.164062,47.765625 C189.153646,47.0520798 188.981773,46.5117206 188.648438,46.1445312 C188.315102,45.7773419 187.856774,45.59375 187.273438,45.59375 Z M198.859375,50.5390625 C198.859375,51.3828167 198.552086,52.0299457 197.9375,52.4804688 C197.322914,52.9309918 196.442714,53.15625 195.296875,53.15625 C194.145828,53.15625 193.221358,52.9817726 192.523438,52.6328125 L192.523438,51.046875 C193.539068,51.5156273 194.484371,51.75 195.359375,51.75 C196.489589,51.75 197.054688,51.4088576 197.054688,50.7265625 C197.054688,50.5078114 196.992188,50.3255216 196.867188,50.1796875 C196.742187,50.0338534 196.53646,49.8828133 196.25,49.7265625 C195.96354,49.5703117 195.565107,49.3932302 195.054688,49.1953125 C194.059891,48.8098939 193.386721,48.4244811 193.035156,48.0390625 C192.683592,47.6536439 192.507812,47.1536489 192.507812,46.5390625 C192.507812,45.7994755 192.805987,45.2252625 193.402344,44.8164062 C193.998701,44.40755 194.809891,44.203125 195.835938,44.203125 C196.851568,44.203125 197.812495,44.4088521 198.71875,44.8203125 L198.125,46.203125 C197.192704,45.8177064 196.408857,45.625 195.773438,45.625 C194.804683,45.625 194.320312,45.9010389 194.320312,46.453125 C194.320312,46.7239597 194.446613,46.9531241 194.699219,47.140625 C194.951824,47.3281259 195.5026,47.5859359 196.351562,47.9140625 C197.065108,48.1901055 197.583332,48.4427072 197.90625,48.671875 C198.229168,48.9010428 198.468749,49.1653631 198.625,49.4648438 C198.781251,49.7643244 198.859375,50.1223938 198.859375,50.5390625 Z M209.335938,45.75 L207.226562,45.75 L207.226562,53 L205.382812,53 L205.382812,45.75 L203.960938,45.75 L203.960938,44.890625 L205.382812,44.328125 L205.382812,43.765625 C205.382812,42.7447866 205.622393,41.9882837 206.101562,41.4960938 C206.580732,41.0039038 207.312495,40.7578125 208.296875,40.7578125 C208.942712,40.7578125 209.578122,40.8645823 210.203125,41.078125 L209.71875,42.46875 C209.265623,42.3229159 208.833335,42.25 208.421875,42.25 C208.005206,42.25 207.701824,42.378905 207.511719,42.6367188 C207.321614,42.8945325 207.226562,43.2812474 207.226562,43.796875 L207.226562,44.359375 L209.335938,44.359375 L209.335938,45.75 Z M218.46875,48.6640625 C218.46875,50.0755279 218.106774,51.1770794 217.382812,51.96875 C216.658851,52.7604206 215.651048,53.15625 214.359375,53.15625 C213.552079,53.15625 212.838545,52.9739602 212.21875,52.609375 C211.598955,52.2447898 211.122398,51.7213576 210.789062,51.0390625 C210.455727,50.3567674 210.289062,49.5651087 210.289062,48.6640625 C210.289062,47.2630138 210.648434,46.1692748 211.367188,45.3828125 C212.085941,44.5963502 213.098952,44.203125 214.40625,44.203125 C215.656256,44.203125 216.64583,44.6054647 217.375,45.4101562 C218.10417,46.2148478 218.46875,47.2994723 218.46875,48.6640625 Z M212.179688,48.6640625 C212.179688,50.6588641 212.916659,51.65625 214.390625,51.65625 C215.848966,51.65625 216.578125,50.6588641 216.578125,48.6640625 C216.578125,46.6900943 215.843757,45.703125 214.375,45.703125 C213.604163,45.703125 213.045575,45.9583308 212.699219,46.46875 C212.352863,46.9791692 212.179688,47.7109327 212.179688,48.6640625 Z M224.960938,44.203125 C225.330731,44.203125 225.635415,44.2291664 225.875,44.28125 L225.695312,45.9921875 C225.434895,45.9296872 225.164064,45.8984375 224.882812,45.8984375 C224.148434,45.8984375 223.553388,46.1380184 223.097656,46.6171875 C222.641925,47.0963566 222.414062,47.7187462 222.414062,48.484375 L222.414062,53 L220.578125,53 L220.578125,44.359375 L222.015625,44.359375 L222.257812,45.8828125 L222.351562,45.8828125 C222.638022,45.3671849 223.011716,44.9583348 223.472656,44.65625 C223.933596,44.3541652 224.429685,44.203125 224.960938,44.203125 Z M234.757812,53 L232.914062,53 L232.914062,47.671875 C232.914062,47.0104134 232.789064,46.5169287 232.539062,46.1914062 C232.289061,45.8658838 231.89844,45.703125 231.367188,45.703125 C230.658851,45.703125 230.139325,45.9335914 229.808594,46.3945312 C229.477863,46.8554711 229.3125,47.6223905 229.3125,48.6953125 L229.3125,53 L227.476562,53 L227.476562,44.359375 L228.914062,44.359375 L229.171875,45.4921875 L229.265625,45.4921875 C229.50521,45.0807271 229.852862,44.763022 230.308594,44.5390625 C230.764325,44.315103 231.265622,44.203125 231.8125,44.203125 C233.140632,44.203125 234.020831,44.6562455 234.453125,45.5625 L234.578125,45.5625 C234.833335,45.1354145 235.192706,44.8020845 235.65625,44.5625 C236.119794,44.3229155 236.651039,44.203125 237.25,44.203125 C238.281255,44.203125 239.03255,44.4635391 239.503906,44.984375 C239.975263,45.5052109 240.210938,46.2994738 240.210938,47.3671875 L240.210938,53 L238.375,53 L238.375,47.671875 C238.375,47.0104134 238.248699,46.5169287 237.996094,46.1914062 C237.743488,45.8658838 237.351565,45.703125 236.820312,45.703125 C236.106767,45.703125 235.584637,45.925779 235.253906,46.3710938 C234.923175,46.8164085 234.757812,47.4999954 234.757812,48.421875 L234.757812,53 Z M248.179688,53 L247.8125,51.796875 L247.75,51.796875 C247.333331,52.3229193 246.914065,52.6809886 246.492188,52.8710938 C246.07031,53.0611989 245.528649,53.15625 244.867188,53.15625 C244.018225,53.15625 243.355471,52.9270856 242.878906,52.46875 C242.402341,52.0104144 242.164062,51.3619834 242.164062,50.5234375 C242.164062,49.632808 242.494788,48.9609398 243.15625,48.5078125 C243.817712,48.0546852 244.825514,47.8072919 246.179688,47.765625 L247.671875,47.71875 L247.671875,47.2578125 C247.671875,46.7057264 247.54297,46.2929701 247.285156,46.0195312 C247.027342,45.7460924 246.627607,45.609375 246.085938,45.609375 C245.643227,45.609375 245.218752,45.6744785 244.8125,45.8046875 C244.406248,45.9348965 244.015627,46.0885408 243.640625,46.265625 L243.046875,44.953125 C243.515627,44.7083321 244.028643,44.5221361 244.585938,44.3945312 C245.143232,44.2669264 245.669268,44.203125 246.164062,44.203125 C247.263026,44.203125 248.092445,44.4427059 248.652344,44.921875 C249.212242,45.4010441 249.492188,46.1536407 249.492188,47.1796875 L249.492188,53 L248.179688,53 Z M245.445312,51.75 C246.111983,51.75 246.647133,51.5638039 247.050781,51.1914062 C247.454429,50.8190086 247.65625,50.2968784 247.65625,49.625 L247.65625,48.875 L246.546875,48.921875 C245.682287,48.9531252 245.053387,49.097655 244.660156,49.3554688 C244.266925,49.6132825 244.070312,50.0078098 244.070312,50.5390625 C244.070312,50.9244811 244.184895,51.2226552 244.414062,51.4335938 C244.64323,51.6445323 244.986977,51.75 245.445312,51.75 Z M255.273438,51.671875 C255.721356,51.671875 256.169269,51.6015632 256.617188,51.4609375 L256.617188,52.84375 C256.414061,52.9322921 256.152345,53.0065101 255.832031,53.0664062 C255.511717,53.1263024 255.179689,53.15625 254.835938,53.15625 C253.096345,53.15625 252.226562,52.2395925 252.226562,50.40625 L252.226562,45.75 L251.046875,45.75 L251.046875,44.9375 L252.3125,44.265625 L252.9375,42.4375 L254.070312,42.4375 L254.070312,44.359375 L256.53125,44.359375 L256.53125,45.75 L254.070312,45.75 L254.070312,50.375 C254.070312,50.8177105 254.180988,51.1445302 254.402344,51.3554688 C254.623699,51.5664073 254.914061,51.671875 255.273438,51.671875 Z M260.179688,53 L258.34375,53 L258.34375,44.359375 L260.179688,44.359375 L260.179688,53 Z M258.234375,42.0703125 C258.234375,41.7421859 258.324218,41.4895842 258.503906,41.3125 C258.683595,41.1354158 258.940102,41.046875 259.273438,41.046875 C259.596356,41.046875 259.847655,41.1354158 260.027344,41.3125 C260.207032,41.4895842 260.296875,41.7421859 260.296875,42.0703125 C260.296875,42.3828141 260.207032,42.6289054 260.027344,42.8085938 C259.847655,42.9882821 259.596356,43.078125 259.273438,43.078125 C258.940102,43.078125 258.683595,42.9882821 258.503906,42.8085938 C258.324218,42.6289054 258.234375,42.3828141 258.234375,42.0703125 Z M270.46875,48.6640625 C270.46875,50.0755279 270.106774,51.1770794 269.382812,51.96875 C268.658851,52.7604206 267.651048,53.15625 266.359375,53.15625 C265.552079,53.15625 264.838545,52.9739602 264.21875,52.609375 C263.598955,52.2447898 263.122398,51.7213576 262.789062,51.0390625 C262.455727,50.3567674 262.289062,49.5651087 262.289062,48.6640625 C262.289062,47.2630138 262.648434,46.1692748 263.367188,45.3828125 C264.085941,44.5963502 265.098952,44.203125 266.40625,44.203125 C267.656256,44.203125 268.64583,44.6054647 269.375,45.4101562 C270.10417,46.2148478 270.46875,47.2994723 270.46875,48.6640625 Z M264.179688,48.6640625 C264.179688,50.6588641 264.916659,51.65625 266.390625,51.65625 C267.848966,51.65625 268.578125,50.6588641 268.578125,48.6640625 C268.578125,46.6900943 267.843757,45.703125 266.375,45.703125 C265.604163,45.703125 265.045575,45.9583308 264.699219,46.46875 C264.352863,46.9791692 264.179688,47.7109327 264.179688,48.6640625 Z M280.179688,53 L278.335938,53 L278.335938,47.6875 C278.335938,47.02083 278.201824,46.5234391 277.933594,46.1953125 C277.665363,45.8671859 277.239586,45.703125 276.65625,45.703125 C275.880204,45.703125 275.312502,45.9322894 274.953125,46.390625 C274.593748,46.8489606 274.414062,47.6171821 274.414062,48.6953125 L274.414062,53 L272.578125,53 L272.578125,44.359375 L274.015625,44.359375 L274.273438,45.4921875 L274.367188,45.4921875 C274.627605,45.0807271 274.997393,44.763022 275.476562,44.5390625 C275.955732,44.315103 276.486976,44.203125 277.070312,44.203125 C279.14324,44.203125 280.179688,45.257802 280.179688,47.3671875 L280.179688,53 Z M288.539062,50.5390625 C288.539062,51.3828167 288.231774,52.0299457 287.617188,52.4804688 C287.002601,52.9309918 286.122402,53.15625 284.976562,53.15625 C283.825515,53.15625 282.901045,52.9817726 282.203125,52.6328125 L282.203125,51.046875 C283.218755,51.5156273 284.164058,51.75 285.039062,51.75 C286.169276,51.75 286.734375,51.4088576 286.734375,50.7265625 C286.734375,50.5078114 286.671876,50.3255216 286.546875,50.1796875 C286.421874,50.0338534 286.216147,49.8828133 285.929688,49.7265625 C285.643228,49.5703117 285.244794,49.3932302 284.734375,49.1953125 C283.739578,48.8098939 283.066408,48.4244811 282.714844,48.0390625 C282.363279,47.6536439 282.1875,47.1536489 282.1875,46.5390625 C282.1875,45.7994755 282.485674,45.2252625 283.082031,44.8164062 C283.678388,44.40755 284.489578,44.203125 285.515625,44.203125 C286.531255,44.203125 287.492183,44.4088521 288.398438,44.8203125 L287.804688,46.203125 C286.872391,45.8177064 286.088545,45.625 285.453125,45.625 C284.48437,45.625 284,45.9010389 284,46.453125 C284,46.7239597 284.126301,46.9531241 284.378906,47.140625 C284.631512,47.3281259 285.182287,47.5859359 286.03125,47.9140625 C286.744795,48.1901055 287.263019,48.4427072 287.585938,48.671875 C287.908856,48.9010428 288.148437,49.1653631 288.304688,49.4648438 C288.460938,49.7643244 288.539062,50.1223938 288.539062,50.5390625 Z M296.515625,53 L294.679688,53 L294.679688,44.359375 L296.515625,44.359375 L296.515625,53 Z M294.570312,42.0703125 C294.570312,41.7421859 294.660155,41.4895842 294.839844,41.3125 C295.019532,41.1354158 295.27604,41.046875 295.609375,41.046875 C295.932293,41.046875 296.183593,41.1354158 296.363281,41.3125 C296.54297,41.4895842 296.632812,41.7421859 296.632812,42.0703125 C296.632812,42.3828141 296.54297,42.6289054 296.363281,42.8085938 C296.183593,42.9882821 295.932293,43.078125 295.609375,43.078125 C295.27604,43.078125 295.019532,42.9882821 294.839844,42.8085938 C294.660155,42.6289054 294.570312,42.3828141 294.570312,42.0703125 Z M306.742188,53 L304.898438,53 L304.898438,47.6875 C304.898438,47.02083 304.764324,46.5234391 304.496094,46.1953125 C304.227863,45.8671859 303.802086,45.703125 303.21875,45.703125 C302.442704,45.703125 301.875002,45.9322894 301.515625,46.390625 C301.156248,46.8489606 300.976562,47.6171821 300.976562,48.6953125 L300.976562,53 L299.140625,53 L299.140625,44.359375 L300.578125,44.359375 L300.835938,45.4921875 L300.929688,45.4921875 C301.190105,45.0807271 301.559893,44.763022 302.039062,44.5390625 C302.518232,44.315103 303.049476,44.203125 303.632812,44.203125 C305.70574,44.203125 306.742188,45.257802 306.742188,47.3671875 L306.742188,53 Z M313.632812,45.75 L311.523438,45.75 L311.523438,53 L309.679688,53 L309.679688,45.75 L308.257812,45.75 L308.257812,44.890625 L309.679688,44.328125 L309.679688,43.765625 C309.679688,42.7447866 309.919268,41.9882837 310.398438,41.4960938 C310.877607,41.0039038 311.60937,40.7578125 312.59375,40.7578125 C313.239587,40.7578125 313.874997,40.8645823 314.5,41.078125 L314.015625,42.46875 C313.562498,42.3229159 313.13021,42.25 312.71875,42.25 C312.302081,42.25 311.998699,42.378905 311.808594,42.6367188 C311.618489,42.8945325 311.523438,43.2812474 311.523438,43.796875 L311.523438,44.359375 L313.632812,44.359375 L313.632812,45.75 Z M322.765625,48.6640625 C322.765625,50.0755279 322.403649,51.1770794 321.679688,51.96875 C320.955726,52.7604206 319.947923,53.15625 318.65625,53.15625 C317.848954,53.15625 317.13542,52.9739602 316.515625,52.609375 C315.89583,52.2447898 315.419273,51.7213576 315.085938,51.0390625 C314.752602,50.3567674 314.585938,49.5651087 314.585938,48.6640625 C314.585938,47.2630138 314.945309,46.1692748 315.664062,45.3828125 C316.382816,44.5963502 317.395827,44.203125 318.703125,44.203125 C319.953131,44.203125 320.942705,44.6054647 321.671875,45.4101562 C322.401045,46.2148478 322.765625,47.2994723 322.765625,48.6640625 Z M316.476562,48.6640625 C316.476562,50.6588641 317.213534,51.65625 318.6875,51.65625 C320.145841,51.65625 320.875,50.6588641 320.875,48.6640625 C320.875,46.6900943 320.140632,45.703125 318.671875,45.703125 C317.901038,45.703125 317.34245,45.9583308 316.996094,46.46875 C316.649738,46.9791692 316.476562,47.7109327 316.476562,48.6640625 Z M329.257812,44.203125 C329.627606,44.203125 329.93229,44.2291664 330.171875,44.28125 L329.992188,45.9921875 C329.73177,45.9296872 329.460939,45.8984375 329.179688,45.8984375 C328.445309,45.8984375 327.850263,46.1380184 327.394531,46.6171875 C326.9388,47.0963566 326.710938,47.7187462 326.710938,48.484375 L326.710938,53 L324.875,53 L324.875,44.359375 L326.3125,44.359375 L326.554688,45.8828125 L326.648438,45.8828125 C326.934897,45.3671849 327.308591,44.9583348 327.769531,44.65625 C328.230471,44.3541652 328.72656,44.203125 329.257812,44.203125 Z M339.054688,53 L337.210938,53 L337.210938,47.671875 C337.210938,47.0104134 337.085939,46.5169287 336.835938,46.1914062 C336.585936,45.8658838 336.195315,45.703125 335.664062,45.703125 C334.955726,45.703125 334.4362,45.9335914 334.105469,46.3945312 C333.774738,46.8554711 333.609375,47.6223905 333.609375,48.6953125 L333.609375,53 L331.773438,53 L331.773438,44.359375 L333.210938,44.359375 L333.46875,45.4921875 L333.5625,45.4921875 C333.802085,45.0807271 334.149737,44.763022 334.605469,44.5390625 C335.0612,44.315103 335.562497,44.203125 336.109375,44.203125 C337.437507,44.203125 338.317706,44.6562455 338.75,45.5625 L338.875,45.5625 C339.13021,45.1354145 339.489581,44.8020845 339.953125,44.5625 C340.416669,44.3229155 340.947914,44.203125 341.546875,44.203125 C342.57813,44.203125 343.329425,44.4635391 343.800781,44.984375 C344.272138,45.5052109 344.507812,46.2994738 344.507812,47.3671875 L344.507812,53 L342.671875,53 L342.671875,47.671875 C342.671875,47.0104134 342.545574,46.5169287 342.292969,46.1914062 C342.040363,45.8658838 341.64844,45.703125 341.117188,45.703125 C340.403642,45.703125 339.881512,45.925779 339.550781,46.3710938 C339.22005,46.8164085 339.054688,47.4999954 339.054688,48.421875 L339.054688,53 Z M352.476562,53 L352.109375,51.796875 L352.046875,51.796875 C351.630206,52.3229193 351.21094,52.6809886 350.789062,52.8710938 C350.367185,53.0611989 349.825524,53.15625 349.164062,53.15625 C348.3151,53.15625 347.652346,52.9270856 347.175781,52.46875 C346.699216,52.0104144 346.460938,51.3619834 346.460938,50.5234375 C346.460938,49.632808 346.791663,48.9609398 347.453125,48.5078125 C348.114587,48.0546852 349.122389,47.8072919 350.476562,47.765625 L351.96875,47.71875 L351.96875,47.2578125 C351.96875,46.7057264 351.839845,46.2929701 351.582031,46.0195312 C351.324217,45.7460924 350.924482,45.609375 350.382812,45.609375 C349.940102,45.609375 349.515627,45.6744785 349.109375,45.8046875 C348.703123,45.9348965 348.312502,46.0885408 347.9375,46.265625 L347.34375,44.953125 C347.812502,44.7083321 348.325518,44.5221361 348.882812,44.3945312 C349.440107,44.2669264 349.966143,44.203125 350.460938,44.203125 C351.559901,44.203125 352.38932,44.4427059 352.949219,44.921875 C353.509117,45.4010441 353.789062,46.1536407 353.789062,47.1796875 L353.789062,53 L352.476562,53 Z M349.742188,51.75 C350.408858,51.75 350.944008,51.5638039 351.347656,51.1914062 C351.751304,50.8190086 351.953125,50.2968784 351.953125,49.625 L351.953125,48.875 L350.84375,48.921875 C349.979162,48.9531252 349.350262,49.097655 348.957031,49.3554688 C348.5638,49.6132825 348.367188,50.0078098 348.367188,50.5390625 C348.367188,50.9244811 348.48177,51.2226552 348.710938,51.4335938 C348.940105,51.6445323 349.283852,51.75 349.742188,51.75 Z M359.570312,51.671875 C360.018231,51.671875 360.466144,51.6015632 360.914062,51.4609375 L360.914062,52.84375 C360.710936,52.9322921 360.44922,53.0065101 360.128906,53.0664062 C359.808592,53.1263024 359.476564,53.15625 359.132812,53.15625 C357.39322,53.15625 356.523438,52.2395925 356.523438,50.40625 L356.523438,45.75 L355.34375,45.75 L355.34375,44.9375 L356.609375,44.265625 L357.234375,42.4375 L358.367188,42.4375 L358.367188,44.359375 L360.828125,44.359375 L360.828125,45.75 L358.367188,45.75 L358.367188,50.375 C358.367188,50.8177105 358.477863,51.1445302 358.699219,51.3554688 C358.920574,51.5664073 359.210936,51.671875 359.570312,51.671875 Z M364.476562,53 L362.640625,53 L362.640625,44.359375 L364.476562,44.359375 L364.476562,53 Z M362.53125,42.0703125 C362.53125,41.7421859 362.621093,41.4895842 362.800781,41.3125 C362.98047,41.1354158 363.236977,41.046875 363.570312,41.046875 C363.893231,41.046875 364.14453,41.1354158 364.324219,41.3125 C364.503907,41.4895842 364.59375,41.7421859 364.59375,42.0703125 C364.59375,42.3828141 364.503907,42.6289054 364.324219,42.8085938 C364.14453,42.9882821 363.893231,43.078125 363.570312,43.078125 C363.236977,43.078125 362.98047,42.9882821 362.800781,42.8085938 C362.621093,42.6289054 362.53125,42.3828141 362.53125,42.0703125 Z M370.523438,51.6875 C371.294275,51.6875 371.847655,51.464846 372.183594,51.0195312 C372.519533,50.5742165 372.6875,49.9010462 372.6875,49 L372.6875,48.7109375 C372.6875,47.6432238 372.514325,46.8750023 372.167969,46.40625 C371.821613,45.9374977 371.263025,45.703125 370.492188,45.703125 C369.835934,45.703125 369.335939,45.9635391 368.992188,46.484375 C368.648436,47.0052109 368.476562,47.7525993 368.476562,48.7265625 C368.476562,50.7005307 369.158847,51.6875 370.523438,51.6875 Z M370,53.15625 C368.932286,53.15625 368.096357,52.7643268 367.492188,51.9804688 C366.888018,51.1966107 366.585938,50.1015695 366.585938,48.6953125 C366.585938,47.2890555 366.893226,46.1888061 367.507812,45.3945312 C368.122399,44.6002564 368.968745,44.203125 370.046875,44.203125 C370.588544,44.203125 371.074217,44.3033844 371.503906,44.5039062 C371.933596,44.7044281 372.317707,45.0338519 372.65625,45.4921875 L372.71875,45.4921875 L372.921875,44.359375 L374.445312,44.359375 L374.445312,56.84375 L372.601562,56.84375 L372.601562,53.1796875 C372.601562,52.9505197 372.611979,52.7083346 372.632812,52.453125 C372.653646,52.1979154 372.671875,52.0026048 372.6875,51.8671875 L372.585938,51.8671875 C372.044268,52.7265668 371.182298,53.15625 370,53.15625 Z M383.164062,53 L382.90625,51.8671875 L382.8125,51.8671875 C382.55729,52.2682312 382.194013,52.5833322 381.722656,52.8125 C381.2513,53.0416678 380.713545,53.15625 380.109375,53.15625 C379.062495,53.15625 378.281253,52.8958359 377.765625,52.375 C377.249997,51.8541641 376.992188,51.0651095 376.992188,50.0078125 L376.992188,44.359375 L378.84375,44.359375 L378.84375,49.6875 C378.84375,50.3489616 378.979165,50.8450504 379.25,51.1757812 C379.520835,51.5065121 379.94531,51.671875 380.523438,51.671875 C381.294275,51.671875 381.860675,51.4414086 382.222656,50.9804688 C382.584637,50.5195289 382.765625,49.7474012 382.765625,48.6640625 L382.765625,44.359375 L384.609375,44.359375 L384.609375,53 L383.164062,53 Z M391,53.15625 C389.656243,53.15625 388.605473,52.7643268 387.847656,51.9804688 C387.08984,51.1966107 386.710938,50.1171944 386.710938,48.7421875 C386.710938,47.3307221 387.062496,46.2213582 387.765625,45.4140625 C388.468754,44.6067668 389.43489,44.203125 390.664062,44.203125 C391.804693,44.203125 392.705726,44.5494757 393.367188,45.2421875 C394.028649,45.9348993 394.359375,46.8880148 394.359375,48.1015625 L394.359375,49.09375 L388.601562,49.09375 C388.627604,49.9322959 388.854165,50.5768207 389.28125,51.0273438 C389.708335,51.4778668 390.309892,51.703125 391.085938,51.703125 C391.596357,51.703125 392.071612,51.6549484 392.511719,51.5585938 C392.951825,51.4622391 393.424477,51.3020845 393.929688,51.078125 L393.929688,52.5703125 C393.481769,52.7838552 393.028648,52.9348954 392.570312,53.0234375 C392.111977,53.1119796 391.588545,53.15625 391,53.15625 Z M390.664062,45.59375 C390.080726,45.59375 389.613283,45.778644 389.261719,46.1484375 C388.910154,46.518231 388.700521,47.0572881 388.632812,47.765625 L392.554688,47.765625 C392.544271,47.0520798 392.372398,46.5117206 392.039062,46.1445312 C391.705727,45.7773419 391.247399,45.59375 390.664062,45.59375 Z M402.25,50.5390625 C402.25,51.3828167 401.942711,52.0299457 401.328125,52.4804688 C400.713539,52.9309918 399.833339,53.15625 398.6875,53.15625 C397.536453,53.15625 396.611983,52.9817726 395.914062,52.6328125 L395.914062,51.046875 C396.929693,51.5156273 397.874996,51.75 398.75,51.75 C399.880214,51.75 400.445312,51.4088576 400.445312,50.7265625 C400.445312,50.5078114 400.382813,50.3255216 400.257812,50.1796875 C400.132812,50.0338534 399.927085,49.8828133 399.640625,49.7265625 C399.354165,49.5703117 398.955732,49.3932302 398.445312,49.1953125 C397.450516,48.8098939 396.777346,48.4244811 396.425781,48.0390625 C396.074217,47.6536439 395.898438,47.1536489 395.898438,46.5390625 C395.898438,45.7994755 396.196612,45.2252625 396.792969,44.8164062 C397.389326,44.40755 398.200516,44.203125 399.226562,44.203125 C400.242193,44.203125 401.20312,44.4088521 402.109375,44.8203125 L401.515625,46.203125 C400.583329,45.8177064 399.799482,45.625 399.164062,45.625 C398.195308,45.625 397.710938,45.9010389 397.710938,46.453125 C397.710938,46.7239597 397.837238,46.9531241 398.089844,47.140625 C398.342449,47.3281259 398.893225,47.5859359 399.742188,47.9140625 C400.455733,48.1901055 400.973957,48.4427072 401.296875,48.671875 C401.619793,48.9010428 401.859374,49.1653631 402.015625,49.4648438 C402.171876,49.7643244 402.25,50.1223938 402.25,50.5390625 Z M164.679688,65.015625 C163.606765,65.015625 162.763024,65.3958295 162.148438,66.15625 C161.533851,66.9166705 161.226562,67.9661391 161.226562,69.3046875 C161.226562,70.7057362 161.522132,71.7656214 162.113281,72.484375 C162.70443,73.2031286 163.55989,73.5625 164.679688,73.5625 C165.164065,73.5625 165.63281,73.5143234 166.085938,73.4179688 C166.539065,73.3216141 167.010414,73.1979174 167.5,73.046875 L167.5,74.6484375 C166.604162,74.9869809 165.588547,75.15625 164.453125,75.15625 C162.781242,75.15625 161.4974,74.6497446 160.601562,73.6367188 C159.705725,72.6236929 159.257812,71.1744886 159.257812,69.2890625 C159.257812,68.1015566 159.475258,67.0625045 159.910156,66.171875 C160.345054,65.2812455 160.973954,64.5989607 161.796875,64.125 C162.619796,63.6510393 163.585932,63.4140625 164.695312,63.4140625 C165.861985,63.4140625 166.940099,63.6588517 167.929688,64.1484375 L167.257812,65.703125 C166.872394,65.5208324 166.464846,65.3606778 166.035156,65.2226562 C165.605467,65.0846347 165.153648,65.015625 164.679688,65.015625 Z M174.148438,66.203125 C174.518231,66.203125 174.822915,66.2291664 175.0625,66.28125 L174.882812,67.9921875 C174.622395,67.9296872 174.351564,67.8984375 174.070312,67.8984375 C173.335934,67.8984375 172.740888,68.1380184 172.285156,68.6171875 C171.829425,69.0963566 171.601562,69.7187462 171.601562,70.484375 L171.601562,75 L169.765625,75 L169.765625,66.359375 L171.203125,66.359375 L171.445312,67.8828125 L171.539062,67.8828125 C171.825522,67.3671849 172.199216,66.9583348 172.660156,66.65625 C173.121096,66.3541652 173.617185,66.203125 174.148438,66.203125 Z M180.117188,75.15625 C178.773431,75.15625 177.72266,74.7643268 176.964844,73.9804688 C176.207027,73.1966107 175.828125,72.1171944 175.828125,70.7421875 C175.828125,69.3307221 176.179684,68.2213582 176.882812,67.4140625 C177.585941,66.6067668 178.552077,66.203125 179.78125,66.203125 C180.921881,66.203125 181.822913,66.5494757 182.484375,67.2421875 C183.145837,67.9348993 183.476562,68.8880148 183.476562,70.1015625 L183.476562,71.09375 L177.71875,71.09375 C177.744792,71.9322959 177.971352,72.5768207 178.398438,73.0273438 C178.825523,73.4778668 179.427079,73.703125 180.203125,73.703125 C180.713544,73.703125 181.1888,73.6549484 181.628906,73.5585938 C182.069013,73.4622391 182.541664,73.3020845 183.046875,73.078125 L183.046875,74.5703125 C182.598956,74.7838552 182.145836,74.9348954 181.6875,75.0234375 C181.229164,75.1119796 180.705732,75.15625 180.117188,75.15625 Z M179.78125,67.59375 C179.197914,67.59375 178.730471,67.778644 178.378906,68.1484375 C178.027342,68.518231 177.817709,69.0572881 177.75,69.765625 L181.671875,69.765625 C181.661458,69.0520798 181.489585,68.5117206 181.15625,68.1445312 C180.822915,67.7773419 180.364586,67.59375 179.78125,67.59375 Z M178.609375,65.3046875 L178.609375,65.109375 C178.906251,64.7447898 179.212238,64.3385439 179.527344,63.890625 C179.842449,63.4427061 180.091145,63.0598974 180.273438,62.7421875 L182.40625,62.7421875 L182.40625,62.90625 C182.135415,63.2239599 181.730471,63.6341121 181.191406,64.1367188 C180.652341,64.6393254 180.197919,65.0286445 179.828125,65.3046875 L178.609375,65.3046875 Z M189.335938,75.15625 C187.992181,75.15625 186.94141,74.7643268 186.183594,73.9804688 C185.425777,73.1966107 185.046875,72.1171944 185.046875,70.7421875 C185.046875,69.3307221 185.398434,68.2213582 186.101562,67.4140625 C186.804691,66.6067668 187.770827,66.203125 189,66.203125 C190.140631,66.203125 191.041663,66.5494757 191.703125,67.2421875 C192.364587,67.9348993 192.695312,68.8880148 192.695312,70.1015625 L192.695312,71.09375 L186.9375,71.09375 C186.963542,71.9322959 187.190102,72.5768207 187.617188,73.0273438 C188.044273,73.4778668 188.645829,73.703125 189.421875,73.703125 C189.932294,73.703125 190.40755,73.6549484 190.847656,73.5585938 C191.287763,73.4622391 191.760414,73.3020845 192.265625,73.078125 L192.265625,74.5703125 C191.817706,74.7838552 191.364586,74.9348954 190.90625,75.0234375 C190.447914,75.1119796 189.924482,75.15625 189.335938,75.15625 Z M189,67.59375 C188.416664,67.59375 187.949221,67.778644 187.597656,68.1484375 C187.246092,68.518231 187.036459,69.0572881 186.96875,69.765625 L190.890625,69.765625 C190.880208,69.0520798 190.708335,68.5117206 190.375,68.1445312 C190.041665,67.7773419 189.583336,67.59375 189,67.59375 Z M187.828125,65.3046875 L187.828125,65.109375 C188.125001,64.7447898 188.430988,64.3385439 188.746094,63.890625 C189.061199,63.4427061 189.309895,63.0598974 189.492188,62.7421875 L191.625,62.7421875 L191.625,62.90625 C191.354165,63.2239599 190.949221,63.6341121 190.410156,64.1367188 C189.871091,64.6393254 189.416669,65.0286445 189.046875,65.3046875 L187.828125,65.3046875 Z M198.554688,75.15625 C197.210931,75.15625 196.16016,74.7643268 195.402344,73.9804688 C194.644527,73.1966107 194.265625,72.1171944 194.265625,70.7421875 C194.265625,69.3307221 194.617184,68.2213582 195.320312,67.4140625 C196.023441,66.6067668 196.989577,66.203125 198.21875,66.203125 C199.359381,66.203125 200.260413,66.5494757 200.921875,67.2421875 C201.583337,67.9348993 201.914062,68.8880148 201.914062,70.1015625 L201.914062,71.09375 L196.15625,71.09375 C196.182292,71.9322959 196.408852,72.5768207 196.835938,73.0273438 C197.263023,73.4778668 197.864579,73.703125 198.640625,73.703125 C199.151044,73.703125 199.6263,73.6549484 200.066406,73.5585938 C200.506513,73.4622391 200.979164,73.3020845 201.484375,73.078125 L201.484375,74.5703125 C201.036456,74.7838552 200.583336,74.9348954 200.125,75.0234375 C199.666664,75.1119796 199.143232,75.15625 198.554688,75.15625 Z M198.21875,67.59375 C197.635414,67.59375 197.167971,67.778644 196.816406,68.1484375 C196.464842,68.518231 196.255209,69.0572881 196.1875,69.765625 L200.109375,69.765625 C200.098958,69.0520798 199.927085,68.5117206 199.59375,68.1445312 C199.260415,67.7773419 198.802086,67.59375 198.21875,67.59375 Z M209.804688,72.5390625 C209.804688,73.3828167 209.497399,74.0299457 208.882812,74.4804688 C208.268226,74.9309918 207.388027,75.15625 206.242188,75.15625 C205.09114,75.15625 204.16667,74.9817726 203.46875,74.6328125 L203.46875,73.046875 C204.48438,73.5156273 205.429683,73.75 206.304688,73.75 C207.434901,73.75 208,73.4088576 208,72.7265625 C208,72.5078114 207.937501,72.3255216 207.8125,72.1796875 C207.687499,72.0338534 207.481772,71.8828133 207.195312,71.7265625 C206.908853,71.5703117 206.510419,71.3932302 206,71.1953125 C205.005203,70.8098939 204.332033,70.4244811 203.980469,70.0390625 C203.628904,69.6536439 203.453125,69.1536489 203.453125,68.5390625 C203.453125,67.7994755 203.751299,67.2252625 204.347656,66.8164062 C204.944013,66.40755 205.755203,66.203125 206.78125,66.203125 C207.79688,66.203125 208.757808,66.4088521 209.664062,66.8203125 L209.070312,68.203125 C208.138016,67.8177064 207.35417,67.625 206.71875,67.625 C205.749995,67.625 205.265625,67.9010389 205.265625,68.453125 C205.265625,68.7239597 205.391926,68.9531241 205.644531,69.140625 C205.897137,69.3281259 206.447912,69.5859359 207.296875,69.9140625 C208.01042,70.1901055 208.528644,70.4427072 208.851562,70.671875 C209.174481,70.9010428 209.414062,71.1653631 209.570312,71.4648438 C209.726563,71.7643244 209.804688,72.1223938 209.804688,72.5390625 Z M220.328125,75.15625 C219.23437,75.15625 218.38542,74.7630248 217.78125,73.9765625 L217.671875,73.9765625 C217.744792,74.7057328 217.78125,75.1484367 217.78125,75.3046875 L217.78125,78.84375 L215.945312,78.84375 L215.945312,66.359375 L217.429688,66.359375 C217.471354,66.5208341 217.557291,66.906247 217.6875,67.515625 L217.78125,67.515625 C218.35417,66.6406206 219.213536,66.203125 220.359375,66.203125 C221.437505,66.203125 222.277341,66.5937461 222.878906,67.375 C223.480472,68.1562539 223.78125,69.2525971 223.78125,70.6640625 C223.78125,72.0755279 223.475263,73.1770794 222.863281,73.96875 C222.251299,74.7604206 221.406255,75.15625 220.328125,75.15625 Z M219.882812,67.703125 C219.153642,67.703125 218.621095,67.9166645 218.285156,68.34375 C217.949217,68.7708355 217.78125,69.4531203 217.78125,70.390625 L217.78125,70.6640625 C217.78125,71.7161511 217.947915,72.4778622 218.28125,72.9492188 C218.614585,73.4205753 219.15885,73.65625 219.914062,73.65625 C220.549482,73.65625 221.039061,73.3958359 221.382812,72.875 C221.726564,72.3541641 221.898438,71.611984 221.898438,70.6484375 C221.898438,69.6796827 221.727866,68.9466171 221.386719,68.4492188 C221.045571,67.9518204 220.544274,67.703125 219.882812,67.703125 Z M231.320312,75 L230.953125,73.796875 L230.890625,73.796875 C230.473956,74.3229193 230.05469,74.6809886 229.632812,74.8710938 C229.210935,75.0611989 228.669274,75.15625 228.007812,75.15625 C227.15885,75.15625 226.496096,74.9270856 226.019531,74.46875 C225.542966,74.0104144 225.304688,73.3619834 225.304688,72.5234375 C225.304688,71.632808 225.635413,70.9609398 226.296875,70.5078125 C226.958337,70.0546852 227.966139,69.8072919 229.320312,69.765625 L230.8125,69.71875 L230.8125,69.2578125 C230.8125,68.7057264 230.683595,68.2929701 230.425781,68.0195312 C230.167967,67.7460924 229.768232,67.609375 229.226562,67.609375 C228.783852,67.609375 228.359377,67.6744785 227.953125,67.8046875 C227.546873,67.9348965 227.156252,68.0885408 226.78125,68.265625 L226.1875,66.953125 C226.656252,66.7083321 227.169268,66.5221361 227.726562,66.3945312 C228.283857,66.2669264 228.809893,66.203125 229.304688,66.203125 C230.403651,66.203125 231.23307,66.4427059 231.792969,66.921875 C232.352867,67.4010441 232.632812,68.1536407 232.632812,69.1796875 L232.632812,75 L231.320312,75 Z M228.585938,73.75 C229.252608,73.75 229.787758,73.5638039 230.191406,73.1914062 C230.595054,72.8190086 230.796875,72.2968784 230.796875,71.625 L230.796875,70.875 L229.6875,70.921875 C228.822912,70.9531252 228.194012,71.097655 227.800781,71.3554688 C227.40755,71.6132825 227.210938,72.0078098 227.210938,72.5390625 C227.210938,72.9244811 227.32552,73.2226552 227.554688,73.4335938 C227.783855,73.6445323 228.127602,73.75 228.585938,73.75 Z M239.578125,66.203125 C239.947919,66.203125 240.252603,66.2291664 240.492188,66.28125 L240.3125,67.9921875 C240.052082,67.9296872 239.781251,67.8984375 239.5,67.8984375 C238.765621,67.8984375 238.170575,68.1380184 237.714844,68.6171875 C237.259112,69.0963566 237.03125,69.7187462 237.03125,70.484375 L237.03125,75 L235.195312,75 L235.195312,66.359375 L236.632812,66.359375 L236.875,67.8828125 L236.96875,67.8828125 C237.25521,67.3671849 237.628904,66.9583348 238.089844,66.65625 C238.550784,66.3541652 239.046872,66.203125 239.578125,66.203125 Z M248.085938,75 L246.25,75 L246.25,62.84375 L248.085938,62.84375 L248.085938,75 Z M256.117188,75 L255.75,73.796875 L255.6875,73.796875 C255.270831,74.3229193 254.851565,74.6809886 254.429688,74.8710938 C254.00781,75.0611989 253.466149,75.15625 252.804688,75.15625 C251.955725,75.15625 251.292971,74.9270856 250.816406,74.46875 C250.339841,74.0104144 250.101562,73.3619834 250.101562,72.5234375 C250.101562,71.632808 250.432288,70.9609398 251.09375,70.5078125 C251.755212,70.0546852 252.763014,69.8072919 254.117188,69.765625 L255.609375,69.71875 L255.609375,69.2578125 C255.609375,68.7057264 255.48047,68.2929701 255.222656,68.0195312 C254.964842,67.7460924 254.565107,67.609375 254.023438,67.609375 C253.580727,67.609375 253.156252,67.6744785 252.75,67.8046875 C252.343748,67.9348965 251.953127,68.0885408 251.578125,68.265625 L250.984375,66.953125 C251.453127,66.7083321 251.966143,66.5221361 252.523438,66.3945312 C253.080732,66.2669264 253.606768,66.203125 254.101562,66.203125 C255.200526,66.203125 256.029945,66.4427059 256.589844,66.921875 C257.149742,67.4010441 257.429688,68.1536407 257.429688,69.1796875 L257.429688,75 L256.117188,75 Z M253.382812,73.75 C254.049483,73.75 254.584633,73.5638039 254.988281,73.1914062 C255.391929,72.8190086 255.59375,72.2968784 255.59375,71.625 L255.59375,70.875 L254.484375,70.921875 C253.619787,70.9531252 252.990887,71.097655 252.597656,71.3554688 C252.204425,71.6132825 252.007812,72.0078098 252.007812,72.5390625 C252.007812,72.9244811 252.122395,73.2226552 252.351562,73.4335938 C252.58073,73.6445323 252.924477,73.75 253.382812,73.75 Z M267.632812,75.15625 C266.325514,75.15625 265.332035,74.7747434 264.652344,74.0117188 C263.972653,73.2486941 263.632812,72.153653 263.632812,70.7265625 C263.632812,69.2734302 263.988278,68.1562539 264.699219,67.375 C265.41016,66.5937461 266.437493,66.203125 267.78125,66.203125 C268.692713,66.203125 269.513017,66.3723941 270.242188,66.7109375 L269.6875,68.1875 C268.911454,67.8854152 268.270836,67.734375 267.765625,67.734375 C266.270826,67.734375 265.523438,68.7265526 265.523438,70.7109375 C265.523438,71.6796923 265.709634,72.4075496 266.082031,72.8945312 C266.454429,73.3815129 266.999996,73.625 267.71875,73.625 C268.536462,73.625 269.309892,73.421877 270.039062,73.015625 L270.039062,74.6171875 C269.710936,74.8098968 269.360679,74.9479162 268.988281,75.03125 C268.615884,75.1145838 268.164065,75.15625 267.632812,75.15625 Z M279.734375,70.6640625 C279.734375,72.0755279 279.372399,73.1770794 278.648438,73.96875 C277.924476,74.7604206 276.916673,75.15625 275.625,75.15625 C274.817704,75.15625 274.10417,74.9739602 273.484375,74.609375 C272.86458,74.2447898 272.388023,73.7213576 272.054688,73.0390625 C271.721352,72.3567674 271.554688,71.5651087 271.554688,70.6640625 C271.554688,69.2630138 271.914059,68.1692748 272.632812,67.3828125 C273.351566,66.5963502 274.364577,66.203125 275.671875,66.203125 C276.921881,66.203125 277.911455,66.6054647 278.640625,67.4101562 C279.369795,68.2148478 279.734375,69.2994723 279.734375,70.6640625 Z M273.445312,70.6640625 C273.445312,72.6588641 274.182284,73.65625 275.65625,73.65625 C277.114591,73.65625 277.84375,72.6588641 277.84375,70.6640625 C277.84375,68.6900943 277.109382,67.703125 275.640625,67.703125 C274.869788,67.703125 274.3112,67.9583308 273.964844,68.46875 C273.618488,68.9791692 273.445312,69.7109327 273.445312,70.6640625 Z M289.125,75 L287.28125,75 L287.28125,69.671875 C287.28125,69.0104134 287.156251,68.5169287 286.90625,68.1914062 C286.656249,67.8658838 286.265628,67.703125 285.734375,67.703125 C285.026038,67.703125 284.506512,67.9335914 284.175781,68.3945312 C283.84505,68.8554711 283.679688,69.6223905 283.679688,70.6953125 L283.679688,75 L281.84375,75 L281.84375,66.359375 L283.28125,66.359375 L283.539062,67.4921875 L283.632812,67.4921875 C283.872397,67.0807271 284.22005,66.763022 284.675781,66.5390625 C285.131513,66.315103 285.63281,66.203125 286.179688,66.203125 C287.507819,66.203125 288.388019,66.6562455 288.820312,67.5625 L288.945312,67.5625 C289.200522,67.1354145 289.559894,66.8020845 290.023438,66.5625 C290.486981,66.3229155 291.018226,66.203125 291.617188,66.203125 C292.648443,66.203125 293.399737,66.4635391 293.871094,66.984375 C294.34245,67.5052109 294.578125,68.2994738 294.578125,69.3671875 L294.578125,75 L292.742188,75 L292.742188,69.671875 C292.742188,69.0104134 292.615887,68.5169287 292.363281,68.1914062 C292.110676,67.8658838 291.718753,67.703125 291.1875,67.703125 C290.473955,67.703125 289.951825,67.925779 289.621094,68.3710938 C289.290363,68.8164085 289.125,69.4999954 289.125,70.421875 L289.125,75 Z M304.421875,75 L302.578125,75 L302.578125,69.671875 C302.578125,69.0104134 302.453126,68.5169287 302.203125,68.1914062 C301.953124,67.8658838 301.562503,67.703125 301.03125,67.703125 C300.322913,67.703125 299.803387,67.9335914 299.472656,68.3945312 C299.141925,68.8554711 298.976562,69.6223905 298.976562,70.6953125 L298.976562,75 L297.140625,75 L297.140625,66.359375 L298.578125,66.359375 L298.835938,67.4921875 L298.929688,67.4921875 C299.169272,67.0807271 299.516925,66.763022 299.972656,66.5390625 C300.428388,66.315103 300.929685,66.203125 301.476562,66.203125 C302.804694,66.203125 303.684894,66.6562455 304.117188,67.5625 L304.242188,67.5625 C304.497397,67.1354145 304.856769,66.8020845 305.320312,66.5625 C305.783856,66.3229155 306.315101,66.203125 306.914062,66.203125 C307.945318,66.203125 308.696612,66.4635391 309.167969,66.984375 C309.639325,67.5052109 309.875,68.2994738 309.875,69.3671875 L309.875,75 L308.039062,75 L308.039062,69.671875 C308.039062,69.0104134 307.912762,68.5169287 307.660156,68.1914062 C307.407551,67.8658838 307.015628,67.703125 306.484375,67.703125 C305.77083,67.703125 305.2487,67.925779 304.917969,68.3710938 C304.587238,68.8164085 304.421875,69.4999954 304.421875,70.421875 L304.421875,75 Z M318.53125,75 L318.273438,73.8671875 L318.179688,73.8671875 C317.924478,74.2682312 317.5612,74.5833322 317.089844,74.8125 C316.618487,75.0416678 316.080732,75.15625 315.476562,75.15625 C314.429682,75.15625 313.64844,74.8958359 313.132812,74.375 C312.617185,73.8541641 312.359375,73.0651095 312.359375,72.0078125 L312.359375,66.359375 L314.210938,66.359375 L314.210938,71.6875 C314.210938,72.3489616 314.346353,72.8450504 314.617188,73.1757812 C314.888022,73.5065121 315.312497,73.671875 315.890625,73.671875 C316.661462,73.671875 317.227863,73.4414086 317.589844,72.9804688 C317.951825,72.5195289 318.132812,71.7474012 318.132812,70.6640625 L318.132812,66.359375 L319.976562,66.359375 L319.976562,75 L318.53125,75 Z M330.195312,75 L328.351562,75 L328.351562,69.6875 C328.351562,69.02083 328.217449,68.5234391 327.949219,68.1953125 C327.680988,67.8671859 327.255211,67.703125 326.671875,67.703125 C325.895829,67.703125 325.328127,67.9322894 324.96875,68.390625 C324.609373,68.8489606 324.429688,69.6171821 324.429688,70.6953125 L324.429688,75 L322.59375,75 L322.59375,66.359375 L324.03125,66.359375 L324.289062,67.4921875 L324.382812,67.4921875 C324.64323,67.0807271 325.013018,66.763022 325.492188,66.5390625 C325.971357,66.315103 326.502601,66.203125 327.085938,66.203125 C329.158865,66.203125 330.195312,67.257802 330.195312,69.3671875 L330.195312,75 Z M338.15625,75 L337.789062,73.796875 L337.726562,73.796875 C337.309894,74.3229193 336.890627,74.6809886 336.46875,74.8710938 C336.046873,75.0611989 335.505212,75.15625 334.84375,75.15625 C333.994787,75.15625 333.332034,74.9270856 332.855469,74.46875 C332.378904,74.0104144 332.140625,73.3619834 332.140625,72.5234375 C332.140625,71.632808 332.471351,70.9609398 333.132812,70.5078125 C333.794274,70.0546852 334.802077,69.8072919 336.15625,69.765625 L337.648438,69.71875 L337.648438,69.2578125 C337.648438,68.7057264 337.519533,68.2929701 337.261719,68.0195312 C337.003905,67.7460924 336.604169,67.609375 336.0625,67.609375 C335.619789,67.609375 335.195315,67.6744785 334.789062,67.8046875 C334.38281,67.9348965 333.992189,68.0885408 333.617188,68.265625 L333.023438,66.953125 C333.49219,66.7083321 334.005206,66.5221361 334.5625,66.3945312 C335.119794,66.2669264 335.645831,66.203125 336.140625,66.203125 C337.239589,66.203125 338.069008,66.4427059 338.628906,66.921875 C339.188805,67.4010441 339.46875,68.1536407 339.46875,69.1796875 L339.46875,75 L338.15625,75 Z M335.421875,73.75 C336.088545,73.75 336.623696,73.5638039 337.027344,73.1914062 C337.430992,72.8190086 337.632812,72.2968784 337.632812,71.625 L337.632812,70.875 L336.523438,70.921875 C335.65885,70.9531252 335.02995,71.097655 334.636719,71.3554688 C334.243488,71.6132825 334.046875,72.0078098 334.046875,72.5390625 C334.046875,72.9244811 334.161457,73.2226552 334.390625,73.4335938 C334.619793,73.6445323 334.963539,73.75 335.421875,73.75 Z M348.125,75 L347.867188,73.8671875 L347.773438,73.8671875 C347.518228,74.2682312 347.15495,74.5833322 346.683594,74.8125 C346.212237,75.0416678 345.674482,75.15625 345.070312,75.15625 C344.023432,75.15625 343.24219,74.8958359 342.726562,74.375 C342.210935,73.8541641 341.953125,73.0651095 341.953125,72.0078125 L341.953125,66.359375 L343.804688,66.359375 L343.804688,71.6875 C343.804688,72.3489616 343.940103,72.8450504 344.210938,73.1757812 C344.481772,73.5065121 344.906247,73.671875 345.484375,73.671875 C346.255212,73.671875 346.821613,73.4414086 347.183594,72.9804688 C347.545575,72.5195289 347.726562,71.7474012 347.726562,70.6640625 L347.726562,66.359375 L349.570312,66.359375 L349.570312,75 L348.125,75 Z M355.40625,73.671875 C355.854169,73.671875 356.302081,73.6015632 356.75,73.4609375 L356.75,74.84375 C356.546874,74.9322921 356.285158,75.0065101 355.964844,75.0664062 C355.64453,75.1263024 355.312502,75.15625 354.96875,75.15625 C353.229158,75.15625 352.359375,74.2395925 352.359375,72.40625 L352.359375,67.75 L351.179688,67.75 L351.179688,66.9375 L352.445312,66.265625 L353.070312,64.4375 L354.203125,64.4375 L354.203125,66.359375 L356.664062,66.359375 L356.664062,67.75 L354.203125,67.75 L354.203125,72.375 C354.203125,72.8177105 354.313801,73.1445302 354.535156,73.3554688 C354.756512,73.5664073 355.046873,73.671875 355.40625,73.671875 Z M362.25,75.15625 C360.906243,75.15625 359.855473,74.7643268 359.097656,73.9804688 C358.33984,73.1966107 357.960938,72.1171944 357.960938,70.7421875 C357.960938,69.3307221 358.312496,68.2213582 359.015625,67.4140625 C359.718754,66.6067668 360.68489,66.203125 361.914062,66.203125 C363.054693,66.203125 363.955726,66.5494757 364.617188,67.2421875 C365.278649,67.9348993 365.609375,68.8880148 365.609375,70.1015625 L365.609375,71.09375 L359.851562,71.09375 C359.877604,71.9322959 360.104165,72.5768207 360.53125,73.0273438 C360.958335,73.4778668 361.559892,73.703125 362.335938,73.703125 C362.846357,73.703125 363.321612,73.6549484 363.761719,73.5585938 C364.201825,73.4622391 364.674477,73.3020845 365.179688,73.078125 L365.179688,74.5703125 C364.731769,74.7838552 364.278648,74.9348954 363.820312,75.0234375 C363.361977,75.1119796 362.838545,75.15625 362.25,75.15625 Z M361.914062,67.59375 C361.330726,67.59375 360.863283,67.778644 360.511719,68.1484375 C360.160154,68.518231 359.950521,69.0572881 359.882812,69.765625 L363.804688,69.765625 C363.794271,69.0520798 363.622398,68.5117206 363.289062,68.1445312 C362.955727,67.7773419 362.497399,67.59375 361.914062,67.59375 Z M360.742188,65.3046875 L360.742188,65.109375 C361.039064,64.7447898 361.345051,64.3385439 361.660156,63.890625 C361.975262,63.4427061 362.223957,63.0598974 362.40625,62.7421875 L364.539062,62.7421875 L364.539062,62.90625 C364.268228,63.2239599 363.863284,63.6341121 363.324219,64.1367188 C362.785154,64.6393254 362.330731,65.0286445 361.960938,65.3046875 L360.742188,65.3046875 Z M159.070312,89.03125 C159.070312,90.2239643 158.679691,91.1380177 157.898438,91.7734375 C157.117184,92.4088573 156.005216,92.7265625 154.5625,92.7265625 L153.375,92.7265625 L153.375,97 L151.507812,97 L151.507812,85.578125 L154.796875,85.578125 C156.223965,85.578125 157.292965,85.8697887 158.003906,86.453125 C158.714847,87.0364613 159.070312,87.8958277 159.070312,89.03125 Z M153.375,91.15625 L154.367188,91.15625 C155.325526,91.15625 156.028644,90.989585 156.476562,90.65625 C156.924481,90.322915 157.148438,89.8020869 157.148438,89.09375 C157.148438,88.4374967 156.947919,87.9479183 156.546875,87.625 C156.145831,87.3020817 155.520838,87.140625 154.671875,87.140625 L153.375,87.140625 L153.375,91.15625 Z M168.820312,92.6640625 C168.820312,94.0755279 168.458337,95.1770794 167.734375,95.96875 C167.010413,96.7604206 166.002611,97.15625 164.710938,97.15625 C163.903642,97.15625 163.190107,96.9739602 162.570312,96.609375 C161.950518,96.2447898 161.47396,95.7213576 161.140625,95.0390625 C160.80729,94.3567674 160.640625,93.5651087 160.640625,92.6640625 C160.640625,91.2630138 160.999996,90.1692748 161.71875,89.3828125 C162.437504,88.5963502 163.450514,88.203125 164.757812,88.203125 C166.007819,88.203125 166.997392,88.6054647 167.726562,89.4101562 C168.455733,90.2148478 168.820312,91.2994723 168.820312,92.6640625 Z M162.53125,92.6640625 C162.53125,94.6588641 163.268222,95.65625 164.742188,95.65625 C166.200528,95.65625 166.929688,94.6588641 166.929688,92.6640625 C166.929688,90.6900943 166.19532,89.703125 164.726562,89.703125 C163.955725,89.703125 163.397137,89.9583308 163.050781,90.46875 C162.704425,90.9791692 162.53125,91.7109327 162.53125,92.6640625 Z M177.023438,97 L176.765625,95.8671875 L176.671875,95.8671875 C176.416665,96.2682312 176.053388,96.5833322 175.582031,96.8125 C175.110675,97.0416678 174.57292,97.15625 173.96875,97.15625 C172.92187,97.15625 172.140628,96.8958359 171.625,96.375 C171.109372,95.8541641 170.851562,95.0651095 170.851562,94.0078125 L170.851562,88.359375 L172.703125,88.359375 L172.703125,93.6875 C172.703125,94.3489616 172.83854,94.8450504 173.109375,95.1757812 C173.38021,95.5065121 173.804685,95.671875 174.382812,95.671875 C175.15365,95.671875 175.72005,95.4414086 176.082031,94.9804688 C176.444012,94.5195289 176.625,93.7474012 176.625,92.6640625 L176.625,88.359375 L178.46875,88.359375 L178.46875,97 L177.023438,97 Z M185.46875,88.203125 C185.838544,88.203125 186.143228,88.2291664 186.382812,88.28125 L186.203125,89.9921875 C185.942707,89.9296872 185.671876,89.8984375 185.390625,89.8984375 C184.656246,89.8984375 184.0612,90.1380184 183.605469,90.6171875 C183.149737,91.0963566 182.921875,91.7187462 182.921875,92.484375 L182.921875,97 L181.085938,97 L181.085938,88.359375 L182.523438,88.359375 L182.765625,89.8828125 L182.859375,89.8828125 C183.145835,89.3671849 183.519529,88.9583348 183.980469,88.65625 C184.441409,88.3541652 184.937497,88.203125 185.46875,88.203125 Z M195.359375,95.671875 C195.807294,95.671875 196.255206,95.6015632 196.703125,95.4609375 L196.703125,96.84375 C196.499999,96.9322921 196.238283,97.0065101 195.917969,97.0664062 C195.597655,97.1263024 195.265627,97.15625 194.921875,97.15625 C193.182283,97.15625 192.3125,96.2395925 192.3125,94.40625 L192.3125,89.75 L191.132812,89.75 L191.132812,88.9375 L192.398438,88.265625 L193.023438,86.4375 L194.15625,86.4375 L194.15625,88.359375 L196.617188,88.359375 L196.617188,89.75 L194.15625,89.75 L194.15625,94.375 C194.15625,94.8177105 194.266926,95.1445302 194.488281,95.3554688 C194.709637,95.5664073 194.999998,95.671875 195.359375,95.671875 Z M206.09375,92.6640625 C206.09375,94.0755279 205.731774,95.1770794 205.007812,95.96875 C204.283851,96.7604206 203.276048,97.15625 201.984375,97.15625 C201.177079,97.15625 200.463545,96.9739602 199.84375,96.609375 C199.223955,96.2447898 198.747398,95.7213576 198.414062,95.0390625 C198.080727,94.3567674 197.914062,93.5651087 197.914062,92.6640625 C197.914062,91.2630138 198.273434,90.1692748 198.992188,89.3828125 C199.710941,88.5963502 200.723952,88.203125 202.03125,88.203125 C203.281256,88.203125 204.27083,88.6054647 205,89.4101562 C205.72917,90.2148478 206.09375,91.2994723 206.09375,92.6640625 Z M199.804688,92.6640625 C199.804688,94.6588641 200.541659,95.65625 202.015625,95.65625 C203.473966,95.65625 204.203125,94.6588641 204.203125,92.6640625 C204.203125,90.6900943 203.468757,89.703125 202,89.703125 C201.229163,89.703125 200.670575,89.9583308 200.324219,90.46875 C199.977863,90.9791692 199.804688,91.7109327 199.804688,92.6640625 Z M214.296875,97 L214.039062,95.8671875 L213.945312,95.8671875 C213.690103,96.2682312 213.326825,96.5833322 212.855469,96.8125 C212.384112,97.0416678 211.846357,97.15625 211.242188,97.15625 C210.195307,97.15625 209.414065,96.8958359 208.898438,96.375 C208.38281,95.8541641 208.125,95.0651095 208.125,94.0078125 L208.125,88.359375 L209.976562,88.359375 L209.976562,93.6875 C209.976562,94.3489616 210.111978,94.8450504 210.382812,95.1757812 C210.653647,95.5065121 211.078122,95.671875 211.65625,95.671875 C212.427087,95.671875 212.993488,95.4414086 213.355469,94.9804688 C213.71745,94.5195289 213.898438,93.7474012 213.898438,92.6640625 L213.898438,88.359375 L215.742188,88.359375 L215.742188,97 L214.296875,97 Z M224.164062,94.5390625 C224.164062,95.3828167 223.856774,96.0299457 223.242188,96.4804688 C222.627601,96.9309918 221.747402,97.15625 220.601562,97.15625 C219.450515,97.15625 218.526045,96.9817726 217.828125,96.6328125 L217.828125,95.046875 C218.843755,95.5156273 219.789058,95.75 220.664062,95.75 C221.794276,95.75 222.359375,95.4088576 222.359375,94.7265625 C222.359375,94.5078114 222.296876,94.3255216 222.171875,94.1796875 C222.046874,94.0338534 221.841147,93.8828133 221.554688,93.7265625 C221.268228,93.5703117 220.869794,93.3932302 220.359375,93.1953125 C219.364578,92.8098939 218.691408,92.4244811 218.339844,92.0390625 C217.988279,91.6536439 217.8125,91.1536489 217.8125,90.5390625 C217.8125,89.7994755 218.110674,89.2252625 218.707031,88.8164062 C219.303388,88.40755 220.114578,88.203125 221.140625,88.203125 C222.156255,88.203125 223.117183,88.4088521 224.023438,88.8203125 L223.429688,90.203125 C222.497391,89.8177064 221.713545,89.625 221.078125,89.625 C220.10937,89.625 219.625,89.9010389 219.625,90.453125 C219.625,90.7239597 219.751301,90.9531241 220.003906,91.140625 C220.256512,91.3281259 220.807287,91.5859359 221.65625,91.9140625 C222.369795,92.1901055 222.888019,92.4427072 223.210938,92.671875 C223.533856,92.9010428 223.773437,93.1653631 223.929688,93.4648438 C224.085938,93.7643244 224.164062,94.1223938 224.164062,94.5390625 Z M228.054688,95.3203125 C227.804686,96.2890673 227.346358,97.5364507 226.679688,99.0625 L225.328125,99.0625 C225.687502,97.656243 225.955728,96.3489644 226.132812,95.140625 L227.9375,95.140625 L228.054688,95.3203125 Z M241.875,88.359375 L241.875,89.3671875 L240.398438,89.640625 C240.533855,89.8229176 240.645833,90.0468737 240.734375,90.3125 C240.822917,90.5781263 240.867188,90.8593735 240.867188,91.15625 C240.867188,92.0468795 240.559899,92.7473933 239.945312,93.2578125 C239.330726,93.7682317 238.48438,94.0234375 237.40625,94.0234375 C237.130207,94.0234375 236.880209,94.0026044 236.65625,93.9609375 C236.260415,94.2057304 236.0625,94.4921859 236.0625,94.8203125 C236.0625,95.0182302 236.154947,95.1666662 236.339844,95.265625 C236.524741,95.3645838 236.864581,95.4140625 237.359375,95.4140625 L238.867188,95.4140625 C239.820317,95.4140625 240.544268,95.6171855 241.039062,96.0234375 C241.533857,96.4296895 241.78125,97.0156212 241.78125,97.78125 C241.78125,98.7604216 241.377608,99.5156223 240.570312,100.046875 C239.763017,100.578128 238.596362,100.84375 237.070312,100.84375 C235.893223,100.84375 234.994795,100.635419 234.375,100.21875 C233.755205,99.8020813 233.445312,99.2083372 233.445312,98.4375 C233.445312,97.9062473 233.61328,97.4596372 233.949219,97.0976562 C234.285158,96.7356753 234.755205,96.4843757 235.359375,96.34375 C235.114582,96.2395828 234.912761,96.0716157 234.753906,95.8398438 C234.595051,95.6080718 234.515625,95.3645846 234.515625,95.109375 C234.515625,94.7864567 234.60677,94.513022 234.789062,94.2890625 C234.971355,94.065103 235.242186,93.8437511 235.601562,93.625 C235.153644,93.4322907 234.790366,93.1184918 234.511719,92.6835938 C234.233072,92.2486957 234.09375,91.7395863 234.09375,91.15625 C234.09375,90.2187453 234.38932,89.4921901 234.980469,88.9765625 C235.571618,88.4609349 236.414057,88.203125 237.507812,88.203125 C237.752605,88.203125 238.009113,88.2200519 238.277344,88.2539062 C238.545574,88.2877606 238.747395,88.3229165 238.882812,88.359375 L241.875,88.359375 Z M235.085938,98.34375 C235.085938,98.7395853 235.264321,99.0442698 235.621094,99.2578125 C235.977866,99.4713552 236.479163,99.578125 237.125,99.578125 C238.125005,99.578125 238.869789,99.4348973 239.359375,99.1484375 C239.848961,98.8619777 240.09375,98.4817732 240.09375,98.0078125 C240.09375,97.6328106 239.959637,97.3658862 239.691406,97.2070312 C239.423176,97.0481763 238.924483,96.96875 238.195312,96.96875 L236.804688,96.96875 C236.278643,96.96875 235.860679,97.0924467 235.550781,97.3398438 C235.240884,97.5872408 235.085938,97.9218729 235.085938,98.34375 Z M235.875,91.15625 C235.875,91.6979194 236.014322,92.1145819 236.292969,92.40625 C236.571616,92.6979181 236.971352,92.84375 237.492188,92.84375 C238.554693,92.84375 239.085938,92.2760473 239.085938,91.140625 C239.085938,90.5781222 238.954428,90.1445328 238.691406,89.8398438 C238.428384,89.5351547 238.028649,89.3828125 237.492188,89.3828125 C236.960935,89.3828125 236.558595,89.5338527 236.285156,89.8359375 C236.011717,90.1380223 235.875,90.5781221 235.875,91.15625 Z M247.859375,88.203125 C248.229169,88.203125 248.533853,88.2291664 248.773438,88.28125 L248.59375,89.9921875 C248.333332,89.9296872 248.062501,89.8984375 247.78125,89.8984375 C247.046871,89.8984375 246.451825,90.1380184 245.996094,90.6171875 C245.540362,91.0963566 245.3125,91.7187462 245.3125,92.484375 L245.3125,97 L243.476562,97 L243.476562,88.359375 L244.914062,88.359375 L245.15625,89.8828125 L245.25,89.8828125 C245.53646,89.3671849 245.910154,88.9583348 246.371094,88.65625 C246.832034,88.3541652 247.328122,88.203125 247.859375,88.203125 Z M255.460938,97 L255.09375,95.796875 L255.03125,95.796875 C254.614581,96.3229193 254.195315,96.6809886 253.773438,96.8710938 C253.35156,97.0611989 252.809899,97.15625 252.148438,97.15625 C251.299475,97.15625 250.636721,96.9270856 250.160156,96.46875 C249.683591,96.0104144 249.445312,95.3619834 249.445312,94.5234375 C249.445312,93.632808 249.776038,92.9609398 250.4375,92.5078125 C251.098962,92.0546852 252.106764,91.8072919 253.460938,91.765625 L254.953125,91.71875 L254.953125,91.2578125 C254.953125,90.7057264 254.82422,90.2929701 254.566406,90.0195312 C254.308592,89.7460924 253.908857,89.609375 253.367188,89.609375 C252.924477,89.609375 252.500002,89.6744785 252.09375,89.8046875 C251.687498,89.9348965 251.296877,90.0885408 250.921875,90.265625 L250.328125,88.953125 C250.796877,88.7083321 251.309893,88.5221361 251.867188,88.3945312 C252.424482,88.2669264 252.950518,88.203125 253.445312,88.203125 C254.544276,88.203125 255.373695,88.4427059 255.933594,88.921875 C256.493492,89.4010441 256.773438,90.1536407 256.773438,91.1796875 L256.773438,97 L255.460938,97 Z M252.726562,95.75 C253.393233,95.75 253.928383,95.5638039 254.332031,95.1914062 C254.735679,94.8190086 254.9375,94.2968784 254.9375,93.625 L254.9375,92.875 L253.828125,92.921875 C252.963537,92.9531252 252.334637,93.097655 251.941406,93.3554688 C251.548175,93.6132825 251.351562,94.0078098 251.351562,94.5390625 C251.351562,94.9244811 251.466145,95.2226552 251.695312,95.4335938 C251.92448,95.6445323 252.268227,95.75 252.726562,95.75 Z M262.554688,95.671875 C263.002606,95.671875 263.450519,95.6015632 263.898438,95.4609375 L263.898438,96.84375 C263.695311,96.9322921 263.433595,97.0065101 263.113281,97.0664062 C262.792967,97.1263024 262.460939,97.15625 262.117188,97.15625 C260.377595,97.15625 259.507812,96.2395925 259.507812,94.40625 L259.507812,89.75 L258.328125,89.75 L258.328125,88.9375 L259.59375,88.265625 L260.21875,86.4375 L261.351562,86.4375 L261.351562,88.359375 L263.8125,88.359375 L263.8125,89.75 L261.351562,89.75 L261.351562,94.375 C261.351562,94.8177105 261.462238,95.1445302 261.683594,95.3554688 C261.904949,95.5664073 262.195311,95.671875 262.554688,95.671875 Z M271.71875,97 L271.460938,95.8671875 L271.367188,95.8671875 C271.111978,96.2682312 270.7487,96.5833322 270.277344,96.8125 C269.805987,97.0416678 269.268232,97.15625 268.664062,97.15625 C267.617182,97.15625 266.83594,96.8958359 266.320312,96.375 C265.804685,95.8541641 265.546875,95.0651095 265.546875,94.0078125 L265.546875,88.359375 L267.398438,88.359375 L267.398438,93.6875 C267.398438,94.3489616 267.533853,94.8450504 267.804688,95.1757812 C268.075522,95.5065121 268.499997,95.671875 269.078125,95.671875 C269.848962,95.671875 270.415363,95.4414086 270.777344,94.9804688 C271.139325,94.5195289 271.320312,93.7474012 271.320312,92.6640625 L271.320312,88.359375 L273.164062,88.359375 L273.164062,97 L271.71875,97 Z M277.617188,97 L275.78125,97 L275.78125,88.359375 L277.617188,88.359375 L277.617188,97 Z M275.671875,86.0703125 C275.671875,85.7421859 275.761718,85.4895842 275.941406,85.3125 C276.121095,85.1354158 276.377602,85.046875 276.710938,85.046875 C277.033856,85.046875 277.285155,85.1354158 277.464844,85.3125 C277.644532,85.4895842 277.734375,85.7421859 277.734375,86.0703125 C277.734375,86.3828141 277.644532,86.6289054 277.464844,86.8085938 C277.285155,86.9882821 277.033856,87.078125 276.710938,87.078125 C276.377602,87.078125 276.121095,86.9882821 275.941406,86.8085938 C275.761718,86.6289054 275.671875,86.3828141 275.671875,86.0703125 Z M283.460938,95.671875 C283.908856,95.671875 284.356769,95.6015632 284.804688,95.4609375 L284.804688,96.84375 C284.601561,96.9322921 284.339845,97.0065101 284.019531,97.0664062 C283.699217,97.1263024 283.367189,97.15625 283.023438,97.15625 C281.283845,97.15625 280.414062,96.2395925 280.414062,94.40625 L280.414062,89.75 L279.234375,89.75 L279.234375,88.9375 L280.5,88.265625 L281.125,86.4375 L282.257812,86.4375 L282.257812,88.359375 L284.71875,88.359375 L284.71875,89.75 L282.257812,89.75 L282.257812,94.375 C282.257812,94.8177105 282.368488,95.1445302 282.589844,95.3554688 C282.811199,95.5664073 283.101561,95.671875 283.460938,95.671875 Z M290.304688,97.15625 C288.960931,97.15625 287.91016,96.7643268 287.152344,95.9804688 C286.394527,95.1966107 286.015625,94.1171944 286.015625,92.7421875 C286.015625,91.3307221 286.367184,90.2213582 287.070312,89.4140625 C287.773441,88.6067668 288.739577,88.203125 289.96875,88.203125 C291.109381,88.203125 292.010413,88.5494757 292.671875,89.2421875 C293.333337,89.9348993 293.664062,90.8880148 293.664062,92.1015625 L293.664062,93.09375 L287.90625,93.09375 C287.932292,93.9322959 288.158852,94.5768207 288.585938,95.0273438 C289.013023,95.4778668 289.614579,95.703125 290.390625,95.703125 C290.901044,95.703125 291.3763,95.6549484 291.816406,95.5585938 C292.256513,95.4622391 292.729164,95.3020845 293.234375,95.078125 L293.234375,96.5703125 C292.786456,96.7838552 292.333336,96.9348954 291.875,97.0234375 C291.416664,97.1119796 290.893232,97.15625 290.304688,97.15625 Z M289.96875,89.59375 C289.385414,89.59375 288.917971,89.778644 288.566406,90.1484375 C288.214842,90.518231 288.005209,91.0572881 287.9375,91.765625 L291.859375,91.765625 C291.848958,91.0520798 291.677085,90.5117206 291.34375,90.1445312 C291.010415,89.7773419 290.552086,89.59375 289.96875,89.59375 Z M303.03125,97 L301.1875,97 L301.1875,91.671875 C301.1875,91.0104134 301.062501,90.5169287 300.8125,90.1914062 C300.562499,89.8658838 300.171878,89.703125 299.640625,89.703125 C298.932288,89.703125 298.412762,89.9335914 298.082031,90.3945312 C297.7513,90.8554711 297.585938,91.6223905 297.585938,92.6953125 L297.585938,97 L295.75,97 L295.75,88.359375 L297.1875,88.359375 L297.445312,89.4921875 L297.539062,89.4921875 C297.778647,89.0807271 298.1263,88.763022 298.582031,88.5390625 C299.037763,88.315103 299.53906,88.203125 300.085938,88.203125 C301.414069,88.203125 302.294269,88.6562455 302.726562,89.5625 L302.851562,89.5625 C303.106772,89.1354145 303.466144,88.8020845 303.929688,88.5625 C304.393231,88.3229155 304.924476,88.203125 305.523438,88.203125 C306.554693,88.203125 307.305987,88.4635391 307.777344,88.984375 C308.2487,89.5052109 308.484375,90.2994738 308.484375,91.3671875 L308.484375,97 L306.648438,97 L306.648438,91.671875 C306.648438,91.0104134 306.522137,90.5169287 306.269531,90.1914062 C306.016926,89.8658838 305.625003,89.703125 305.09375,89.703125 C304.380205,89.703125 303.858075,89.925779 303.527344,90.3710938 C303.196613,90.8164085 303.03125,91.4999954 303.03125,92.421875 L303.03125,97 Z M314.820312,97.15625 C313.476556,97.15625 312.425785,96.7643268 311.667969,95.9804688 C310.910152,95.1966107 310.53125,94.1171944 310.53125,92.7421875 C310.53125,91.3307221 310.882809,90.2213582 311.585938,89.4140625 C312.289066,88.6067668 313.255202,88.203125 314.484375,88.203125 C315.625006,88.203125 316.526038,88.5494757 317.1875,89.2421875 C317.848962,89.9348993 318.179688,90.8880148 318.179688,92.1015625 L318.179688,93.09375 L312.421875,93.09375 C312.447917,93.9322959 312.674477,94.5768207 313.101562,95.0273438 C313.528648,95.4778668 314.130204,95.703125 314.90625,95.703125 C315.416669,95.703125 315.891925,95.6549484 316.332031,95.5585938 C316.772138,95.4622391 317.244789,95.3020845 317.75,95.078125 L317.75,96.5703125 C317.302081,96.7838552 316.848961,96.9348954 316.390625,97.0234375 C315.932289,97.1119796 315.408857,97.15625 314.820312,97.15625 Z M314.484375,89.59375 C313.901039,89.59375 313.433596,89.778644 313.082031,90.1484375 C312.730467,90.518231 312.520834,91.0572881 312.453125,91.765625 L316.375,91.765625 C316.364583,91.0520798 316.19271,90.5117206 315.859375,90.1445312 C315.52604,89.7773419 315.067711,89.59375 314.484375,89.59375 Z M327.867188,97 L326.023438,97 L326.023438,91.6875 C326.023438,91.02083 325.889324,90.5234391 325.621094,90.1953125 C325.352863,89.8671859 324.927086,89.703125 324.34375,89.703125 C323.567704,89.703125 323.000002,89.9322894 322.640625,90.390625 C322.281248,90.8489606 322.101562,91.6171821 322.101562,92.6953125 L322.101562,97 L320.265625,97 L320.265625,88.359375 L321.703125,88.359375 L321.960938,89.4921875 L322.054688,89.4921875 C322.315105,89.0807271 322.684893,88.763022 323.164062,88.5390625 C323.643232,88.315103 324.174476,88.203125 324.757812,88.203125 C326.83074,88.203125 327.867188,89.257802 327.867188,91.3671875 L327.867188,97 Z M333.640625,95.671875 C334.088544,95.671875 334.536456,95.6015632 334.984375,95.4609375 L334.984375,96.84375 C334.781249,96.9322921 334.519533,97.0065101 334.199219,97.0664062 C333.878905,97.1263024 333.546877,97.15625 333.203125,97.15625 C331.463533,97.15625 330.59375,96.2395925 330.59375,94.40625 L330.59375,89.75 L329.414062,89.75 L329.414062,88.9375 L330.679688,88.265625 L331.304688,86.4375 L332.4375,86.4375 L332.4375,88.359375 L334.898438,88.359375 L334.898438,89.75 L332.4375,89.75 L332.4375,94.375 C332.4375,94.8177105 332.548176,95.1445302 332.769531,95.3554688 C332.990887,95.5664073 333.281248,95.671875 333.640625,95.671875 Z" id="Des-formations-infor" fill="#161719"></path>
            </g>
        </g>
    </g>
</svg>