<?xml version="1.0" encoding="UTF-8"?>
<svg width="150px" height="30px" viewBox="0 0 150 30" version="1.1" xmlns="http://www.w3.org/2000/svg" xmlns:xlink="http://www.w3.org/1999/xlink">
    <!-- Generator: Sketch 46.2 (44496) - http://www.bohemiancoding.com/sketch -->
    <title>Logo - V Bleu@2x</title>
    <desc>Created with Sketch.</desc>
    <defs>
        <circle id="path-1" cx="15.5" cy="2.5" r="2.5"></circle>
        <circle id="path-2" cx="34.5" cy="2.5" r="2.5"></circle>
        <circle id="path-3" cx="25.5" cy="23.5" r="2.5"></circle>
    </defs>
    <g id="Page-1" stroke="none" stroke-width="1" fill="none" fill-rule="evenodd">
        <g id="Logo---V-Bleu">
            <g id="Logo" transform="translate(0.000000, 2.000000)">
                <path d="M37.7333984,9.74121094 C37.7333984,8.76464355 37.1718806,8.27636719 36.0488281,8.27636719 C35.8697908,8.27636719 35.7802734,8.24381543 35.7802734,8.17871094 L35.7802734,7.88574219 C35.7802734,7.8206377 35.8128252,7.78808594 35.8779297,7.78808594 L41.9936523,7.78808594 C42.0587568,7.78808594 42.0913086,7.8206377 42.0913086,7.88574219 L42.0913086,8.17871094 C42.0913086,8.24381543 41.9122739,8.27636719 41.5541992,8.27636719 C41.1961245,8.27636719 40.866538,8.39029834 40.5654297,8.61816406 C40.2643214,8.84602979 40.1137695,9.3139613 40.1137695,10.0219727 L40.1137695,23.046875 C40.1137695,24.0234424 40.6793563,24.5117188 41.8105469,24.5117188 C41.9814462,24.5117188 42.0668945,24.5442705 42.0668945,24.609375 L42.0668945,24.9023438 C42.0668945,24.9674482 42.0343428,25 41.9692383,25 L35.8535156,25 C35.7884111,25 35.7558594,24.9674482 35.7558594,24.9023438 L35.7558594,24.609375 C35.7558594,24.5442705 35.934894,24.5117188 36.2929688,24.5117188 C36.6510435,24.5117188 36.98063,24.3977876 37.2817383,24.1699219 C37.5828466,23.9420562 37.7333984,23.4741246 37.7333984,22.7661133 L37.7333984,9.74121094 Z M51.0390625,24.9023438 C51.0390625,24.9674482 51.0065107,25 50.9414062,25 L43.7636719,25 C43.7067054,25 43.6782227,24.9674482 43.6782227,24.9023438 L43.6782227,24.6704102 C43.6782227,24.6053057 43.8511539,24.5686849 44.1970215,24.5605469 C44.5428891,24.5524088 44.966062,24.4242363 45.4665527,24.1760254 C45.9670435,23.9278145 46.2172852,23.5514348 46.2172852,23.046875 L46.2172852,9.74121094 C46.2172852,8.82160999 45.4034912,8.31298877 43.7758789,8.21533203 C43.7107744,8.21533203 43.6782227,8.18278027 43.6782227,8.11767578 L43.6782227,7.88574219 C43.6782227,7.8206377 43.7067054,7.78808594 43.7636719,7.78808594 L50.9414062,7.78808594 C51.0065107,7.78808594 51.0390625,7.8206377 51.0390625,7.88574219 L51.0390625,8.11767578 C51.0390625,8.16650415 50.8702003,8.19091797 50.5324707,8.19091797 C50.1947411,8.19091797 49.8224304,8.28857324 49.4155273,8.48388672 C48.8702772,8.74430469 48.5976562,9.17154651 48.5976562,9.765625 L48.5976562,15.1489258 C48.5976562,15.8650752 48.6668287,16.2231445 48.8051758,16.2231445 C49.1551124,16.2231445 49.5986301,16.0013857 50.1357422,15.5578613 C50.6728542,15.114337 51.1489237,14.6565779 51.5639648,14.1845703 C51.979006,13.7125627 52.3960754,13.1530794 52.8151855,12.5061035 C53.2342957,11.8591276 53.5252271,11.4176444 53.6879883,11.1816406 C54.2983429,10.3190061 54.6035156,9.67000543 54.6035156,9.23461914 C54.6035156,8.79923285 54.416343,8.50830151 54.0419922,8.36181641 C53.7978503,8.26415967 53.4479189,8.21533203 52.9921875,8.21533203 L52.8701172,8.21533203 C52.8050127,8.21533203 52.7724609,8.18278027 52.7724609,8.11767578 L52.7724609,7.88574219 C52.7724609,7.8206377 52.8050127,7.78808594 52.8701172,7.78808594 L59.9257813,7.78808594 C59.9908857,7.78808594 60.0234375,7.8206377 60.0234375,7.88574219 L60.0234375,8.11767578 C60.0234375,8.21533252 59.9746099,8.26416016 59.8769531,8.26416016 C58.8352813,8.2967124 58.0743839,8.43302289 57.5942383,8.6730957 C57.1140927,8.91316852 56.729575,9.17561707 56.4406738,9.46044922 C56.1517726,9.74528137 55.8364275,10.1765922 55.4946289,10.7543945 C54.452957,12.5203539 53.4153698,13.9322864 52.3818359,14.9902344 C51.9423806,15.4378278 51.7145183,15.7145177 51.6982422,15.8203125 C51.7389325,15.9016931 52.072588,16.2272107 52.6992188,16.796875 C54.2617266,18.2291738 55.9015214,20.1700724 57.6186523,22.6196289 C58.2615592,23.555506 59.1038359,24.1332997 60.1455078,24.3530273 C60.837243,24.5157886 61.2746573,24.597168 61.4577637,24.597168 C61.6408701,24.597168 61.7324219,24.6297197 61.7324219,24.6948242 L61.7324219,24.9023438 C61.7324219,24.9674482 61.6998701,25 61.6347656,25 L53.6513672,25 C53.5862627,25 53.5537109,24.9674482 53.5537109,24.9023438 L53.5537109,24.6704102 C53.5537109,24.6053057 53.6920559,24.560547 53.96875,24.5361328 C54.888351,24.4547522 55.3481445,24.1862002 55.3481445,23.7304688 C55.2911781,23.2747373 54.4733152,22.1476327 52.8945312,20.3491211 C52.6096991,20.0317367 52.3126643,19.6777363 52.003418,19.2871094 C50.7664326,17.7652919 49.7491902,17.0043945 48.9516602,17.0043945 L48.7197266,17.0043945 C48.6383459,17.0043945 48.5976562,17.0613601 48.5976562,17.175293 L48.5976562,22.8881836 C48.5976562,24.0275122 49.3788984,24.597168 50.9414062,24.597168 C51.0065107,24.597168 51.0390625,24.6297197 51.0390625,24.6948242 L51.0390625,24.9023438 Z M64.8696289,9.74121094 C64.8696289,8.76464355 64.3081111,8.27636719 63.1850586,8.27636719 C63.0060212,8.27636719 62.9165039,8.24381543 62.9165039,8.17871094 L62.9165039,7.88574219 C62.9165039,7.8206377 62.9490557,7.78808594 63.0141602,7.78808594 L69.1298828,7.78808594 C69.1949873,7.78808594 69.2275391,7.8206377 69.2275391,7.88574219 L69.2275391,8.17871094 C69.2275391,8.24381543 69.0485044,8.27636719 68.6904297,8.27636719 C68.332355,8.27636719 68.0027684,8.39029834 67.7016602,8.61816406 C67.4005519,8.84602979 67.25,9.3139613 67.25,10.0219727 L67.25,23.046875 C67.25,24.0234424 67.8155868,24.5117188 68.9467773,24.5117188 C69.1176766,24.5117188 69.203125,24.5442705 69.203125,24.609375 L69.203125,24.9023438 C69.203125,24.9674482 69.1705732,25 69.1054688,25 L62.9897461,25 C62.9246416,25 62.8920898,24.9674482 62.8920898,24.9023438 L62.8920898,24.609375 C62.8920898,24.5442705 63.0711245,24.5117188 63.4291992,24.5117188 C63.7872739,24.5117188 64.1168605,24.3977876 64.4179688,24.1699219 C64.719077,23.9420562 64.8696289,23.4741246 64.8696289,22.7661133 L64.8696289,9.74121094 Z M75.1967773,24.609375 C75.1967773,24.5442705 75.2333981,24.5117188 75.3066406,24.5117188 L75.6484375,24.5117188 C76.4459675,24.5117188 77.0868303,24.340822 77.5710449,23.9990234 C78.0552596,23.6572249 78.2973633,23.2584658 78.2973633,22.8027344 L78.2973633,9.28955078 C78.2973633,9.11865149 78.262777,9.0230307 78.1936035,9.00268555 C78.12443,8.98234039 78.0410161,8.96403003 77.9433594,8.94775391 L73.2558594,8.94775391 C72.4990197,9.11051514 72.0026053,9.69237781 71.7666016,10.6933594 C71.6363926,11.2304714 71.5590822,11.5742994 71.534668,11.7248535 C71.5102538,11.8754077 71.4654951,11.9506836 71.4003906,11.9506836 L71.1806641,11.9506836 C71.1318357,11.9506836 71.1074219,11.9344077 71.1074219,11.9018555 L71.1074219,11.4990234 L71.559082,7.69042969 C71.6079104,7.43814978 71.6892898,7.31201172 71.8032227,7.31201172 C71.9171555,7.31201172 72.0392246,7.39135663 72.1694336,7.55004883 C72.2996426,7.70874103 72.5478497,7.78808594 72.9140625,7.78808594 L86.0732422,7.78808594 C86.4231788,7.78808594 86.6347653,7.74739624 86.7080078,7.66601562 C86.7812504,7.58463501 86.8504229,7.5052901 86.9155273,7.42797852 C86.9806318,7.35066693 87.0640457,7.31201172 87.1657715,7.31201172 C87.2674973,7.31201172 87.3326008,7.35270142 87.361084,7.43408203 C87.3895672,7.51546265 87.4119465,7.60091101 87.4282227,7.69042969 L87.8798828,11.4990234 L87.8798828,11.9018555 C87.8798828,11.9344077 87.855469,11.9506836 87.8066406,11.9506836 L87.5869141,11.9506836 C87.5218096,11.9506836 87.4770509,11.889649 87.4526367,11.7675781 C87.3224277,10.953772 87.1352551,10.3088403 86.8911133,9.83276367 C86.6469714,9.35668707 86.2604193,9.06168677 85.7314453,8.94775391 L81.0317383,8.94775391 C80.9340815,8.96403003 80.8506677,8.98234039 80.7814941,9.00268555 C80.7123206,9.0230307 80.6777344,9.11865149 80.6777344,9.28955078 L80.6777344,22.8027344 C80.6777344,23.2584658 80.9198381,23.6572249 81.4040527,23.9990234 C81.8882674,24.340822 82.5291301,24.5117188 83.3266602,24.5117188 L83.6806641,24.5117188 C83.7457686,24.5117188 83.7783203,24.5442705 83.7783203,24.609375 L83.7783203,24.9023438 C83.7783203,24.9674482 83.7457686,25 83.6806641,25 L75.2944336,25 C75.2293291,25 75.1967773,24.9674482 75.1967773,24.9023438 L75.1967773,24.609375 Z M88.746582,24.9023438 L88.746582,24.5605469 C88.746582,24.4954424 88.7791338,24.4628906 88.8442383,24.4628906 L89.112793,24.4628906 C89.4545916,24.4384764 89.8045229,24.424235 90.1625977,24.420166 C90.5206724,24.416097 90.8461899,24.3733728 91.1391602,24.2919922 C91.8064812,24.0966787 92.1401367,23.6084023 92.1401367,22.8271484 L92.1401367,9.9609375 C92.1401367,9.15526941 91.6640673,8.64257922 90.7119141,8.42285156 C90.443358,8.36588513 90.1707371,8.3170575 89.894043,8.27636719 L89.6376953,8.27636719 C89.5725908,8.27636719 89.5400391,8.24381543 89.5400391,8.17871094 L89.5400391,7.88574219 C89.5400391,7.8206377 89.5725908,7.78808594 89.6376953,7.78808594 L101.246582,7.78808594 C101.393067,7.78808594 101.49886,7.81453424 101.563965,7.86743164 C101.629069,7.92032904 101.669759,8.03629468 101.686035,8.21533203 L101.905762,11.7553711 C101.905762,11.8367517 101.844727,11.8774414 101.722656,11.8774414 C101.600585,11.8774414 101.511068,11.8408207 101.454102,11.7675781 C101.405273,11.6861975 101.342204,11.3891627 101.264893,10.8764648 C101.187581,10.363767 101.047202,9.93652515 100.84375,9.59472656 C100.640298,9.25292798 100.282229,9.03727258 99.7695313,8.94775391 L94.6791992,8.94775391 C94.5734044,8.94775391 94.5205078,9.00065051 94.5205078,9.10644531 L94.5205078,15.4174805 C94.5205078,15.4988611 94.5611975,15.5395508 94.6425781,15.5395508 L98.8662109,15.5395508 C99.9567112,15.5395508 100.501953,14.9047915 100.501953,13.6352539 C100.501953,13.5701494 100.534505,13.5375977 100.599609,13.5375977 L100.892578,13.5375977 C100.957683,13.5375977 100.990234,13.5701494 100.990234,13.6352539 L100.990234,18.8598633 C100.990234,18.9249678 100.957683,18.9575195 100.892578,18.9575195 L100.599609,18.9575195 C100.534505,18.9575195 100.501953,18.9249678 100.501953,18.8598633 C100.501953,17.6554302 100.152022,16.9596364 99.4521484,16.7724609 C99.256835,16.7236326 99.0493175,16.6992188 98.8295898,16.6992188 L94.6425781,16.6992188 C94.5611975,16.6992188 94.5205078,16.7399084 94.5205078,16.8212891 L94.5205078,22.7661133 C94.5205078,23.3764679 94.8012667,23.7223303 95.362793,23.8037109 C95.5255542,23.8281251 95.6964509,23.840332 95.8754883,23.840332 L99.9404297,23.840332 C100.77865,23.840332 101.429685,23.4700558 101.893555,22.7294922 C102.227215,22.2005182 102.430664,21.5942417 102.503906,20.9106445 C102.52832,20.6827788 102.65039,20.5688477 102.870117,20.5688477 C102.967774,20.5688477 103.016602,20.6217443 103.016602,20.7275391 L102.61377,24.8291016 C102.564941,24.9430344 102.507976,25 102.442871,25 L88.8442383,25 C88.7791338,25 88.746582,24.9674482 88.746582,24.9023438 Z M120.509277,24.5361328 C120.468587,24.6012373 120.368897,24.6154787 120.210205,24.5788574 C120.051513,24.5422361 119.866375,24.5239258 119.654785,24.5239258 C119.443196,24.5239258 119.144126,24.56665 118.757568,24.6520996 C118.37101,24.7375493 117.762699,24.8718253 116.932617,25.0549316 C116.102535,25.238038 115.345707,25.3295898 114.662109,25.3295898 C113.115878,25.3295898 111.616462,24.9654171 110.163818,24.2370605 C108.711174,23.508704 107.549484,22.4751857 106.678711,21.1364746 C105.807938,19.7977635 105.372559,18.2454515 105.372559,16.4794922 C105.372559,14.7135328 105.807938,13.1144277 106.678711,11.6821289 C107.948249,9.58250903 109.860664,8.21533521 112.416016,7.58056641 C113.229822,7.37711487 114.043616,7.27539062 114.857422,7.27539062 C115.972336,7.27539062 117.294751,7.46256323 118.824707,7.83691406 C119.288577,7.95084692 119.681232,8.06884705 120.002686,8.19091797 C120.324139,8.31298889 120.521484,8.37402344 120.594727,8.37402344 L120.960938,8.27636719 L121.339355,8.27636719 C121.437012,8.27636719 121.48584,8.34553967 121.48584,8.48388672 L121.48584,12.2802734 C121.48584,12.3616541 121.412598,12.4023438 121.266113,12.4023438 C121.119628,12.4023438 121.03418,12.3840334 121.009766,12.3474121 C120.985351,12.3107908 120.960938,12.2660322 120.936523,12.2131348 C120.912109,12.1602374 120.885661,12.1053063 120.857178,12.0483398 C120.828695,11.9913734 120.800212,11.9384768 120.771729,11.8896484 C120.743245,11.8408201 120.724935,11.8041993 120.716797,11.7797852 C119.496088,9.33022864 117.644706,8.10546875 115.162598,8.10546875 C112.924631,8.10546875 111.174974,8.81753845 109.913574,10.2416992 C108.652175,11.66586 108.021484,13.5518275 108.021484,15.8996582 C108.021484,18.247489 108.715244,20.2636635 110.102783,21.9482422 C111.490323,23.6328209 113.37629,24.4750977 115.760742,24.4750977 C117.062832,24.4750977 118.248937,24.0885455 119.319092,23.3154297 C120.389247,22.5423138 121.229489,21.5942439 121.839844,20.4711914 C121.85612,20.422363 121.904948,20.3979492 121.986328,20.3979492 L122.14502,20.3979492 C122.2264,20.3979492 122.26709,20.4467769 122.26709,20.5444336 C122.26709,20.6420903 122.242676,20.7356766 122.193848,20.8251953 L120.509277,24.5361328 Z M140.992676,22.7905273 C140.992676,23.8891656 141.753573,24.4628904 143.275391,24.5117188 C143.340495,24.5117188 143.373047,24.5442705 143.373047,24.609375 L143.373047,24.9023438 C143.373047,24.9674482 143.340495,25 143.275391,25 L135.511719,25 C135.446614,25 135.414062,24.9674482 135.414062,24.9023438 L135.414062,24.609375 C135.414062,24.5442705 135.617511,24.5117188 136.024414,24.5117188 C136.431317,24.5117188 136.89518,24.4222014 137.416016,24.2431641 C138.213546,23.9827461 138.612305,23.5432974 138.612305,22.9248047 L138.612305,17.1020508 C138.612305,17.0206702 138.600098,16.9677736 138.575684,16.9433594 C138.551269,16.9189452 138.498373,16.9067383 138.416992,16.9067383 L128.797852,16.9067383 C128.716471,16.9067383 128.663574,16.9189452 128.63916,16.9433594 C128.614746,16.9677736 128.602539,17.0206702 128.602539,17.1020508 L128.602539,23.046875 C128.602539,24.0234424 129.322747,24.5117188 130.763184,24.5117188 C130.828288,24.5117188 130.86084,24.5442705 130.86084,24.609375 L130.86084,24.9023438 C130.86084,24.9674482 130.832357,25 130.775391,25 L124.037109,25 C123.972005,25 123.939453,24.9674482 123.939453,24.9023438 L123.939453,24.609375 C123.939453,24.5442705 124.020833,24.5117188 124.183594,24.5117188 C125.54265,24.5117188 126.222168,23.9298561 126.222168,22.7661133 L126.222168,9.74121094 C126.222168,8.78905774 125.656581,8.28450549 124.525391,8.22753906 C124.354491,8.219401 124.269043,8.18278027 124.269043,8.11767578 L124.269043,7.88574219 C124.269043,7.8206377 124.297526,7.78808594 124.354492,7.78808594 L130.482422,7.78808594 C130.547526,7.78808594 130.580078,7.8206377 130.580078,7.88574219 L130.580078,8.11767578 C130.580078,8.16650415 130.502768,8.19091797 130.348145,8.19091797 C129.184402,8.19091797 128.602539,8.7646427 128.602539,9.91210938 L128.602539,15.5517578 C128.602539,15.6331384 128.614746,15.686035 128.63916,15.7104492 C128.663574,15.7348634 128.716471,15.7470703 128.797852,15.7470703 L138.416992,15.7470703 C138.498373,15.7470703 138.551269,15.7348634 138.575684,15.7104492 C138.600098,15.686035 138.612305,15.6331384 138.612305,15.5517578 L138.612305,9.71679688 C138.596029,9.64355432 138.585856,9.57641632 138.581787,9.51538086 C138.577718,9.4543454 138.563477,9.35872461 138.539062,9.22851562 C138.482096,8.95182153 138.193199,8.72599371 137.672363,8.55102539 C137.151527,8.37605707 136.561527,8.2641604 135.902344,8.21533203 C135.837239,8.21533203 135.804688,8.18278027 135.804688,8.11767578 L135.804688,7.88574219 C135.804688,7.8206377 135.83317,7.78808594 135.890137,7.78808594 L142.933594,7.78808594 C142.998698,7.78808594 143.03125,7.8206377 143.03125,7.88574219 L143.03125,8.11767578 C143.03125,8.16650415 142.95394,8.19091797 142.799316,8.19091797 C141.594883,8.19091797 140.992676,8.7646427 140.992676,9.91210938 L140.992676,22.7905273 Z" fill="#3E4246"></path>
                <g id="Group" stroke-width="1">
                    <path d="M15.5,2.5 L25.5,23.5" id="Line" stroke="#3BAEF8" stroke-width="2" fill="#FF2D55" stroke-linecap="square"></path>
                    <path d="M34.5,2.5 L25.5,23.5" id="Line-Copy" stroke="#3BAEF8" stroke-width="2" fill="#FF2D55" stroke-linecap="square"></path>
                    <g id="Oval-3">
                        <use fill="#FFFFFF" fill-rule="evenodd" xlink:href="#path-1"></use>
                        <circle stroke="#3BAEF8" stroke-width="1" cx="15.5" cy="2.5" r="2"></circle>
                    </g>
                    <g id="Oval-3-Copy">
                        <use fill="#FFFFFF" fill-rule="evenodd" xlink:href="#path-2"></use>
                        <circle stroke="#3BAEF8" stroke-width="1" cx="34.5" cy="2.5" r="2"></circle>
                    </g>
                    <g id="Oval-3-Copy-2">
                        <use fill="#FFFFFF" fill-rule="evenodd" xlink:href="#path-3"></use>
                        <circle stroke="#3BAEF8" stroke-width="1" cx="25.5" cy="23.5" r="2"></circle>
                    </g>
                    <path d="M10.4335938,1.58691406 C9.06639941,1.58691406 8.3828125,2.11099736 8.3828125,3.15917969 C8.3828125,3.35286555 8.41984012,3.55794163 8.49389648,3.77441406 C8.56795284,3.9908865 8.63346326,4.2187488 8.69042969,4.45800781 L15.2358398,20.2148438 C15.2928063,20.3287766 15.3839512,20.3857422 15.5092773,20.3857422 C15.6346035,20.3857422 15.7371415,20.3230801 15.8168945,20.1977539 L19.59375,11.3110352 L22.7071569,4.47778896 C22.8428955,3.94775391 22.9956089,3.49820285 22.9526367,3.26171875 C22.7609863,2.20703125 21.9682893,1.58691406 20.2976074,1.58691406 C19.8272651,1.58691406 19.9668579,1.58691406 19.8347168,1.58691406 C19.7025757,1.58691406 19.6381836,1.58691406 19.6381836,1.45019531 L19.6381836,1.04003906 C19.6381836,0.948892773 19.6837561,0.903320312 19.7749023,0.903320312 L28.4291992,0.903320312 C28.5203455,0.903320312 28.565918,0.948892773 28.565918,1.04003906 L28.565918,1.45019531 C28.565918,1.5413416 28.5203455,1.58691406 28.4291992,1.58691406 L27.796875,1.58691406 C26.7031195,1.58691406 25.8714221,2.12239048 25.3017578,3.19335938 C25.1080719,3.55794453 24.9086924,3.98518635 24.7036133,4.47509766 L22.4819336,9.6875 L20.6875,13.9086914 L16.0219727,24.8632812 C15.8966465,25.1367201 15.7656257,25.3047686 15.6289063,25.3674316 C15.4921868,25.4300947 15.2928073,25.4614258 15.0307617,25.4614258 L14.2275391,25.4614258 C13.9541002,25.4614258 13.7775069,25.330405 13.6977539,25.0683594 L4.64013672,3.26171875 C4.45784414,2.81738059 3.89388494,2.42716639 2.94824219,2.09106445 C2.00259944,1.75496251 1.41870228,1.58691406 1.1965332,1.58691406 C0.974364124,1.58691406 0.86328125,1.5413416 0.86328125,1.45019531 L0.86328125,1.04003906 C0.86328125,0.948892773 0.908853711,0.903320312 1,0.903320312 L10.7412109,0.903320312 C10.8323572,0.903320312 10.8779297,0.948892773 10.8779297,1.04003906 L10.8779297,1.45019531 C10.8779297,1.5413416 10.8323572,1.58691406 10.7412109,1.58691406 L10.4335938,1.58691406 Z" id="Path" fill="#3E4246"></path>
                </g>
            </g>
        </g>
    </g>
</svg>